<svg width="88" height="61" viewBox="0 0 88 61" fill="none" xmlns="http://www.w3.org/2000/svg">
<g clip-path="url(#clip0_277_343)">
<path d="M17.6427 30.2837C17.6427 30.2837 10.1019 38.2497 4.46758 32.043C4.46758 32.043 0.603259 27.1659 9.39899 23.0358C9.39045 23.0444 -1.13824 23.8808 0.10528 16.2378C0.10528 16.2378 2.29354 10.308 10.2669 12.3932C10.2669 12.3932 1.46832 5.3876 8.14408 1.21422C14.8198 -2.95916 20.2834 7.70935 20.4883 8.50249C20.4883 8.50249 4.5814 15.7965 17.6427 30.2837Z" fill="#6B1211"/>
<path d="M18.7126 8.75052C18.7126 8.75052 15.7191 3.57922 12.4751 3.14083C9.23111 2.70244 8.50833 5.54333 8.7502 6.81813C8.99208 8.09293 14.0999 13.3969 14.0999 13.3969C15.7219 10.6396 18.7126 8.75052 18.7126 8.75052Z" fill="#EE7381"/>
<path d="M13.0413 15.6235C13.0413 15.6235 7.66317 13.1229 4.75782 14.6486C1.85247 16.1744 2.8655 18.923 3.78463 19.8401C4.70375 20.7573 11.8263 21.4033 11.8263 21.4033C11.9141 19.422 12.3246 17.469 13.0413 15.6235Z" fill="#EE7381"/>
<path d="M12.236 23.9962C12.236 23.9962 7.07983 25.4729 6.16924 28.1811C5.25865 30.8894 7.50666 31.9882 8.6136 31.994C9.72054 31.9998 15.0475 28.2648 15.0475 28.2648C13.7611 27.113 12.7923 25.642 12.236 23.9962Z" fill="#EE7381"/>
<path d="M18.4964 30.7884C19.5265 31.397 21.2594 31.9738 23.0493 32.2305C23.0493 32.2305 22.4802 36.8192 24.0566 40.2686C24.0566 40.2686 24.381 48.0559 27.5027 48.4164C30.6243 48.7769 31.5975 45.9129 33.7004 40.5974C33.7004 40.5974 33.9138 40.5224 33.9849 40.6292C34.0561 40.7359 35.1715 46.8647 37.4252 47.0839C39.679 47.3031 39.6334 43.7325 39.7216 40.5974C39.7216 40.5974 46.958 40.5686 48.4889 40.0696C48.4889 40.0696 47.9596 45.838 51.3943 46.4148C54.8289 46.9916 54.5785 39.6832 54.5785 39.6832C54.5785 39.6832 56.1891 39.6832 56.6529 39.6111C56.6529 39.6111 56.5732 46.6253 60.8644 46.559C65.1556 46.4927 66.7775 39.8158 66.7349 29.3608C66.7349 29.3608 78.5953 36.0837 62.8193 51.7188C62.8193 51.7188 58.3717 57.9572 71.8342 60.8269C71.8342 60.8269 81.4067 63.1343 86.1959 51.9408C90.6094 41.6213 85.5812 33.537 85.5812 33.537C85.5812 33.537 82.9661 27.3995 78.638 25.2335C76.7314 24.2846 76.6802 24.0798 66.88 24.4836C66.88 24.4836 59.3591 20.5525 53.9866 20.6564C53.9866 20.6564 47.1572 19.6757 42.516 19.9815C42.516 19.9815 43.179 12.7336 34.5256 8.36405C34.5256 8.36405 28.6523 4.6406 20.9692 7.62571C18.7829 8.48347 16.8438 9.88342 15.3295 11.6974C13.8153 13.5113 12.7741 15.6813 12.3015 18.0087C11.7381 20.6737 10.2584 25.9228 18.4964 30.7884Z" fill="#F7BDC4"/>
<path d="M71.0203 27.7052C71.0203 27.7052 81.6742 39.761 67.193 51.5688C67.193 51.5688 64.8312 55.0154 69.0056 57.5044C73.1801 59.9934 82.269 54.1126 84.167 43.372C86.065 32.6314 75.542 27.6706 75.542 27.6706C75.542 27.6706 71.6008 26.2055 71.0203 27.7052Z" fill="#EE7381"/>
<path d="M23.0493 32.2161C23.0493 32.2161 22.8074 34.8695 23.0095 35.8357C23.1916 36.7009 37.1663 38.4314 41.8758 32.4612C41.8758 32.4612 37.209 30.6615 37.6728 29.8424C37.6757 29.8424 26.9592 33.5255 23.0493 32.2161Z" fill="#EE7381"/>
<path d="M37.1919 30.0443C37.1919 30.0443 44.7327 38.0075 50.367 31.8007C50.367 31.8007 54.2313 26.9236 45.4327 22.7964C45.4327 22.7964 55.9842 23.6299 54.7293 15.9869C54.7293 15.9869 52.541 10.0571 44.5648 12.1423C44.5648 12.1423 53.3634 5.13668 46.6905 0.963302C40.0176 -3.21008 34.5199 7.46708 34.3065 8.26023C34.3065 8.26023 50.2503 15.5485 37.1919 30.0443Z" fill="#6B1211"/>
<path d="M38.6232 28.4061C38.6232 28.4061 42.0379 32.3891 45.3132 32.1555C48.5885 31.9219 48.7279 28.9829 48.2328 27.7918C47.7377 26.6006 41.853 22.407 41.853 22.407C40.8485 24.997 38.6232 28.4061 38.6232 28.4061Z" fill="#EE7381"/>
<path d="M42.203 20.8784C42.203 20.8784 48.1303 22.4186 50.6003 19.8661C53.0703 17.3136 51.0698 14.6458 49.9288 14.2247C47.5214 13.3306 41.1359 14.4669 41.1359 14.4669C42.3794 16.3243 42.203 20.8784 42.203 20.8784Z" fill="#EE7381"/>
<path d="M40.2424 13.1345C40.2424 13.1345 44.9063 10.3657 45.8966 6.90756C46.8698 3.50713 42.9229 2.6217 41.7847 3.04567C39.3773 3.94553 35.8089 9.10241 35.8089 9.10241C36.563 9.39947 40.2424 13.1345 40.2424 13.1345Z" fill="#EE7381"/>
</g>
<defs>
<clipPath id="clip0_277_343">
<rect width="88" height="61" fill="white"/>
</clipPath>
</defs>
</svg>
