<svg width="296" height="203" viewBox="0 0 296 203" fill="none" xmlns="http://www.w3.org/2000/svg">
<g clip-path="url(#clip0_412_694)">
<path d="M59.3435 100.78C59.3435 100.78 33.9789 127.29 15.0273 106.635C15.0273 106.635 2.02911 90.4046 31.6147 76.6601C31.586 76.6889 -3.82868 79.4723 0.354088 54.0373C0.354088 54.0373 7.71461 34.3036 34.5341 41.2431C34.5341 41.2431 4.93886 17.9292 27.3937 4.04078C49.8485 -9.84768 68.2259 25.6557 68.9151 28.2952C68.9151 28.2952 15.4101 52.5688 59.3435 100.78Z" fill="#EB566E"/>
<path d="M62.9423 29.1206C62.9423 29.1206 52.873 11.9112 41.9615 10.4523C31.0499 8.99336 28.6187 18.4475 29.4323 22.6899C30.2459 26.9322 47.4268 44.5831 47.4268 44.5831C52.8826 35.4074 62.9423 29.1206 62.9423 29.1206Z" fill="#F8C7CB"/>
<path d="M43.8664 51.993C43.8664 51.993 25.7762 43.6714 16.0036 48.7488C6.2311 53.8262 9.63857 62.9732 12.7302 66.0254C15.8218 69.0776 39.7794 71.2276 39.7794 71.2276C40.0746 64.6339 41.4556 58.1346 43.8664 51.993Z" fill="#F8C7CB"/>
<path d="M41.1575 79.8562C41.1575 79.8562 23.8138 84.7704 20.7509 93.7831C17.688 102.796 25.2496 106.453 28.9729 106.472C32.6962 106.491 50.6141 94.0614 50.6141 94.0614C46.2872 90.2285 43.0283 85.3333 41.1575 79.8562Z" fill="#F8C7CB"/>
<path d="M62.2151 102.46C65.68 104.485 71.509 106.405 77.5295 107.259C77.5295 107.259 75.6152 122.529 80.9179 134.009C80.9179 134.009 82.009 159.924 92.509 161.123C103.009 162.323 106.282 152.792 113.356 135.103C113.356 135.103 114.074 134.853 114.313 135.209C114.552 135.564 118.304 155.96 125.885 156.689C133.466 157.419 133.312 145.536 133.609 135.103C133.609 135.103 157.95 135.007 163.099 133.346C163.099 133.346 161.319 152.543 172.872 154.462C184.425 156.382 183.582 132.06 183.582 132.06C183.582 132.06 189 132.06 190.56 131.82C190.56 131.82 190.292 155.163 204.726 154.942C219.16 154.721 224.615 132.502 224.472 97.7087C224.472 97.7087 264.366 120.082 211.301 172.113C211.301 172.113 196.341 192.874 241.624 202.424C241.624 202.424 273.823 210.103 289.932 172.852C304.777 138.51 287.864 111.607 287.864 111.607C287.864 111.607 279.068 91.182 264.51 83.9738C258.097 80.816 257.924 80.1346 224.96 81.4783C224.96 81.4783 199.662 68.3961 181.591 68.7416C181.591 68.7416 158.62 65.4782 143.008 66.4957C143.008 66.4957 145.239 42.3756 116.132 27.8345C116.132 27.8345 96.3759 15.4433 70.5327 25.3774C63.1789 28.2319 56.6566 32.8907 51.5631 38.9273C46.4696 44.9639 42.9676 52.1854 41.3778 59.9305C39.4827 68.7992 34.5054 86.2678 62.2151 102.46Z" fill="#FBDFE1"/>
<path d="M238.886 92.1994C238.886 92.1994 274.722 132.32 226.013 171.614C226.013 171.614 218.068 183.084 232.11 191.367C246.151 199.65 276.723 180.08 283.107 144.336C289.491 108.593 254.096 92.0842 254.096 92.0842C254.096 92.0842 240.839 87.2084 238.886 92.1994Z" fill="#F8C7CB"/>
<path d="M77.5296 107.211C77.5296 107.211 76.716 116.041 77.3956 119.257C78.0082 122.136 125.014 127.895 140.855 108.027C140.855 108.027 125.158 102.038 126.718 99.3116C126.727 99.3116 90.6809 111.568 77.5296 107.211Z" fill="#F8C7CB"/>
<path d="M59.3435 100.78C59.3435 100.78 33.9789 127.29 15.0273 106.635C15.0273 106.635 2.02911 90.4046 31.6147 76.6601C31.586 76.6889 -3.82868 79.4723 0.354088 54.0373C0.354088 54.0373 7.71461 34.3036 34.5341 41.2431C34.5341 41.2431 4.93886 17.9292 27.3937 4.04078C49.8485 -9.84768 68.2259 25.6557 68.9151 28.2952C68.9151 28.2952 15.4101 52.5688 59.3435 100.78Z" fill="#007448"/>
<path d="M62.9423 29.1206C62.9423 29.1206 52.873 11.9112 41.9615 10.4523C31.0499 8.99336 28.6187 18.4475 29.4323 22.6899C30.2459 26.9322 47.4268 44.5831 47.4268 44.5831C52.8826 35.4074 62.9423 29.1206 62.9423 29.1206Z" fill="#9CCD9B"/>
<path d="M43.8664 51.993C43.8664 51.993 25.7762 43.6714 16.0036 48.7488C6.2311 53.8262 9.63857 62.9732 12.7302 66.0254C15.8218 69.0776 39.7794 71.2276 39.7794 71.2276C40.0746 64.6339 41.4556 58.1346 43.8664 51.993Z" fill="#9CCD9B"/>
<path d="M41.1575 79.8562C41.1575 79.8562 23.8138 84.7704 20.7509 93.7831C17.688 102.796 25.2496 106.453 28.9729 106.472C32.6962 106.491 50.6141 94.0614 50.6141 94.0614C46.2872 90.2285 43.0283 85.3333 41.1575 79.8562Z" fill="#9CCD9B"/>
<path d="M62.2151 102.46C65.68 104.485 71.509 106.405 77.5295 107.259C77.5295 107.259 75.6152 122.529 80.9179 134.009C80.9179 134.009 82.009 159.924 92.509 161.123C103.009 162.323 106.282 152.792 113.356 135.103C113.356 135.103 114.074 134.853 114.313 135.209C114.552 135.564 118.304 155.96 125.885 156.689C133.466 157.419 133.312 145.536 133.609 135.103C133.609 135.103 157.95 135.007 163.099 133.346C163.099 133.346 161.319 152.543 172.872 154.462C184.425 156.382 183.582 132.06 183.582 132.06C183.582 132.06 189 132.06 190.56 131.82C190.56 131.82 190.292 155.163 204.726 154.942C219.16 154.721 224.615 132.502 224.472 97.7087C224.472 97.7087 264.366 120.082 211.301 172.113C211.301 172.113 196.341 192.874 241.624 202.424C241.624 202.424 273.823 210.103 289.932 172.852C304.777 138.51 287.864 111.607 287.864 111.607C287.864 111.607 279.068 91.182 264.51 83.9738C258.097 80.816 257.924 80.1346 224.96 81.4783C224.96 81.4783 199.662 68.3961 181.591 68.7416C181.591 68.7416 158.62 65.4782 143.008 66.4957C143.008 66.4957 145.239 42.3756 116.132 27.8345C116.132 27.8345 96.3759 15.4433 70.5327 25.3774C63.1789 28.2319 56.6566 32.8907 51.5631 38.9273C46.4696 44.9639 42.9676 52.1854 41.3778 59.9305C39.4827 68.7992 34.5054 86.2678 62.2151 102.46Z" fill="#CFE4C0"/>
<path d="M238.886 92.1994C238.886 92.1994 274.722 132.32 226.013 171.614C226.013 171.614 218.068 183.084 232.11 191.367C246.151 199.65 276.723 180.08 283.107 144.336C289.491 108.593 254.096 92.0842 254.096 92.0842C254.096 92.0842 240.839 87.2084 238.886 92.1994Z" fill="#9CCD9B"/>
<path d="M77.5296 107.211C77.5296 107.211 76.716 116.041 77.3956 119.257C78.0082 122.136 125.014 127.895 140.855 108.027C140.855 108.027 125.158 102.038 126.718 99.3116C126.727 99.3116 90.6809 111.568 77.5296 107.211Z" fill="#9CCD9B"/>
<g clip-path="url(#clip1_412_694)">
<path d="M77.4083 107.028C77.4083 107.028 76.5818 115.985 77.2722 119.257C77.8945 122.177 125.644 128.019 141.736 107.856C141.736 107.856 125.79 101.79 127.375 99.0249C127.375 99.0249 90.758 111.458 77.4083 107.028Z" fill="#CF89BA"/>
<path d="M176 67.6357C176.097 65.9318 165.227 66.6621 143.661 66C143.606 65.9998 143.552 66.0129 143.504 66.0381C143.455 66.0634 143.413 66.1 143.381 66.145C143.35 66.1899 143.33 66.2418 143.323 66.2962C143.315 66.3507 143.322 66.406 143.34 66.4576C145.197 71.5398 159.646 117.261 77.4084 114.466C77.3637 114.465 77.3192 114.473 77.2774 114.488C77.2356 114.504 77.1974 114.528 77.1649 114.559C77.1324 114.59 77.1062 114.627 77.0879 114.668C77.0697 114.709 77.0596 114.753 77.0583 114.797C77.0583 116.793 77.107 127.123 80.6656 133.754C80.6699 133.786 80.6699 133.819 80.6656 133.851C81.0642 136.188 80.8406 136.285 81.2101 138.797C81.22 138.857 81.2447 138.913 81.2821 138.961C81.3195 139.008 81.3683 139.046 81.424 139.069C83.2811 139.722 98.8282 144.911 112.032 139.624C112.761 139.332 113.189 135.857 113.889 135.282C114.019 135.215 114.166 135.188 114.311 135.204C114.456 135.219 114.593 135.277 114.706 135.37C114.706 135.37 115.377 139.186 115.678 139.332C116.651 139.858 131.799 139.138 134.016 138.69C134.09 138.678 134.157 138.64 134.205 138.583C134.253 138.526 134.279 138.453 134.278 138.378C134.278 137.56 134.424 136.431 134.434 135.691C134.431 135.648 134.437 135.605 134.453 135.565C134.468 135.524 134.491 135.488 134.522 135.457C134.552 135.427 134.589 135.403 134.629 135.388C134.669 135.373 134.712 135.367 134.755 135.37C143.286 135.484 151.816 135.123 160.307 134.289C169.275 113.123 174.582 90.5839 176 67.6357Z" fill="#E4ACCF"/>
</g>
<path d="M125.1 99.9835C125.1 99.9835 150.465 126.484 169.416 105.829C169.416 105.829 182.414 89.5983 152.819 75.8634C152.819 75.8634 188.311 78.6373 184.09 53.2023C184.09 53.2023 176.729 33.4686 149.9 40.408C149.9 40.408 179.495 17.0942 157.05 3.20574C134.605 -10.6827 116.112 24.8495 115.395 27.489C115.395 27.489 169.024 51.7434 125.1 99.9835Z" fill="#007448"/>
<path d="M129.915 94.5317C129.915 94.5317 141.4 107.787 152.417 107.009C163.434 106.232 163.903 96.4513 162.238 92.4873C160.572 88.5233 140.778 74.5676 140.778 74.5676C137.4 83.1867 129.915 94.5317 129.915 94.5317Z" fill="#9CCD9B"/>
<path d="M141.956 69.4807C141.956 69.4807 161.893 74.6061 170.201 66.1118C178.509 57.6175 171.78 48.7392 167.942 47.3379C159.845 44.3625 138.366 48.1441 138.366 48.1441C142.549 54.3253 141.956 69.4807 141.956 69.4807Z" fill="#9CCD9B"/>
<path d="M135.361 43.7098C135.361 43.7098 151.048 34.4956 154.379 22.9875C157.653 11.6713 144.377 8.72469 140.548 10.1356C132.451 13.1302 120.448 30.2916 120.448 30.2916C122.985 31.2803 135.361 43.7098 135.361 43.7098Z" fill="#9CCD9B"/>
<g clip-path="url(#clip2_412_694)">
<path d="M102.56 60.88C102.56 60.88 115 59.35 121.44 66" stroke="#1D1D1B" stroke-width="5" stroke-miterlimit="10" stroke-linecap="round"/>
<path d="M56.5 60.73C56.5 60.73 67.62 54.91 76 58.89" stroke="#1D1D1B" stroke-width="5" stroke-miterlimit="10" stroke-linecap="round"/>
<path d="M96 87.08C96 89.22 93.41 94.08 88.3 93.66C83.19 93.24 82.3 87.08 82.3 87.08" stroke="#1D1D1B" stroke-width="3" stroke-miterlimit="10" stroke-linecap="round"/>
</g>
</g>
<defs>
<clipPath id="clip0_412_694">
<rect width="296" height="203" fill="white"/>
</clipPath>
<clipPath id="clip1_412_694">
<rect width="99" height="76" fill="white" transform="translate(77 66)"/>
</clipPath>
<clipPath id="clip2_412_694">
<rect width="69.94" height="40.19" fill="white" transform="translate(54 55)"/>
</clipPath>
</defs>
</svg>
