<svg width="88" height="60" viewBox="0 0 88 60" fill="none" xmlns="http://www.w3.org/2000/svg">
<g clip-path="url(#clip0_277_262)">
<path d="M17.6427 29.7873C17.6427 29.7873 10.1019 37.6227 4.46758 31.5178C4.46758 31.5178 0.603259 26.7206 9.39899 22.6582C9.39045 22.6667 -1.13824 23.4894 0.10528 15.9717C0.10528 15.9717 2.29354 10.139 10.2669 12.1901C10.2669 12.1901 1.46832 5.29931 8.14408 1.19434C14.8198 -2.91062 20.2834 7.583 20.4883 8.36314C20.4883 8.36314 4.5814 15.5376 17.6427 29.7873Z" fill="#8FC473"/>
<path d="M18.4964 30.2837C19.5265 30.8823 21.2594 31.4497 23.0493 31.7021C23.0493 31.7021 22.4802 36.2156 24.0566 39.6085C24.0566 39.6085 24.381 47.2681 27.5027 47.6227C30.6243 47.9773 31.5975 45.1603 33.7004 39.9319C33.7004 39.9319 33.9138 39.8582 33.9849 39.9631C34.0561 40.0681 35.1715 46.0965 37.4252 46.3121C39.679 46.5277 39.6334 43.0156 39.7216 39.9319C39.7216 39.9319 46.958 39.9036 48.4889 39.4128C48.4889 39.4128 47.9596 45.0865 51.3943 45.6539C54.8289 46.2213 54.5785 39.0326 54.5785 39.0326C54.5785 39.0326 56.1891 39.0326 56.6529 38.9617C56.6529 38.9617 56.5733 45.861 60.8644 45.7958C65.1556 45.7305 66.7776 39.1631 66.7349 28.8794C66.7349 28.8794 78.5953 35.4922 62.8193 50.8709C62.8193 50.8709 58.3717 57.0071 71.8342 59.8298C71.8342 59.8298 81.4068 62.0993 86.1959 51.0894C90.6094 40.939 85.5812 32.9872 85.5812 32.9872C85.5812 32.9872 82.9661 26.9504 78.638 24.8199C76.7314 23.8865 76.6802 23.6851 66.88 24.0823C66.88 24.0823 59.3591 20.2156 53.9866 20.3177C53.9866 20.3177 47.1572 19.3532 42.516 19.6539C42.516 19.6539 43.179 12.5248 34.5256 8.22696C34.5256 8.22696 28.6523 4.56455 20.9692 7.50072C18.7829 8.34442 16.8438 9.72142 15.3295 11.5056C13.8153 13.2899 12.7741 15.4243 12.3015 17.7135C11.7381 20.3348 10.2584 25.4979 18.4964 30.2837Z" fill="#DEE9BB"/>
<path d="M23.0493 31.688C23.0493 31.688 22.8074 34.2979 23.0095 35.2482C23.1916 36.0993 37.1663 37.8014 41.8758 31.9291C41.8758 31.9291 37.209 30.1589 37.6728 29.3532C37.6757 29.3532 26.9592 32.9759 23.0493 31.688Z" fill="#C9DFAB"/>
<path d="M37.1919 29.5518C37.1919 29.5518 44.7327 37.3844 50.367 31.2794C50.367 31.2794 54.2313 26.4823 45.4328 22.4227C45.4328 22.4227 55.9842 23.2426 54.7293 15.7248C54.7293 15.7248 52.541 9.89221 44.5648 11.9433C44.5648 11.9433 53.3634 5.05249 46.6905 0.947526C40.0176 -3.15744 34.5199 7.34469 34.3065 8.12483C34.3065 8.12483 50.2503 15.2936 37.1919 29.5518Z" fill="#8FC473"/>
<path d="M38.6232 27.9404C38.6232 27.9404 42.0379 31.8582 45.3132 31.6284C48.5885 31.3986 48.7279 28.5078 48.2328 27.3362C47.7377 26.1646 41.853 22.0397 41.853 22.0397C40.8485 24.5873 38.6232 27.9404 38.6232 27.9404Z" fill="#C9DFAB"/>
<path d="M18.7126 8.60712C18.7126 8.60712 15.719 3.5206 12.4751 3.08939C9.2311 2.65819 8.50831 5.45251 8.75019 6.70641C8.99206 7.96031 14.0999 13.1773 14.0999 13.1773C15.7219 10.4653 18.7126 8.60712 18.7126 8.60712Z" fill="#C9DFAB"/>
<path d="M13.0413 15.3674C13.0413 15.3674 7.66317 12.9078 4.75782 14.4085C1.85247 15.9092 2.8655 18.6128 3.78463 19.5149C4.70375 20.417 11.8263 21.0525 11.8263 21.0525C11.9141 19.1036 12.3246 17.1826 13.0413 15.3674Z" fill="#C9DFAB"/>
<path d="M12.236 23.6028C12.236 23.6028 7.07983 25.0553 6.16924 27.7192C5.25865 30.383 7.50666 31.4638 8.6136 31.4695C9.72054 31.4752 15.0475 27.8014 15.0475 27.8014C13.7611 26.6685 12.7923 25.2217 12.236 23.6028Z" fill="#C9DFAB"/>
<path d="M42.203 20.5362C42.203 20.5362 48.1304 22.0511 50.6003 19.5404C53.0703 17.0298 51.0699 14.4057 49.9288 13.9915C47.5214 13.1121 41.1359 14.2298 41.1359 14.2298C42.3794 16.0567 42.203 20.5362 42.203 20.5362Z" fill="#C9DFAB"/>
<path d="M40.2424 12.9192C40.2424 12.9192 44.9063 10.1957 45.8966 6.79433C46.8698 3.44965 42.9229 2.57873 41.7847 2.99575C39.3773 3.88085 35.8089 8.95319 35.8089 8.95319C36.563 9.24539 40.2424 12.9192 40.2424 12.9192Z" fill="#C9DFAB"/>
<path d="M71.0203 27.2511C71.0203 27.2511 81.6742 39.1092 67.193 50.7234C67.193 50.7234 64.8312 54.1135 69.0056 56.5617C73.1801 59.0099 82.269 53.2255 84.167 42.661C86.065 32.0965 75.542 27.217 75.542 27.217C75.542 27.217 71.6008 25.7759 71.0203 27.2511Z" fill="#C9DFAB"/>
</g>
<defs>
<clipPath id="clip0_277_262">
<rect width="88" height="60" fill="white"/>
</clipPath>
</defs>
</svg>
