<svg width="68" height="14" viewBox="0 0 68 14" fill="none" xmlns="http://www.w3.org/2000/svg">
<path d="M66.5327 2C66.6065 3.33323 66.4076 4.6675 65.9482 5.92125C65.4888 7.175 64.7785 8.32189 63.8608 9.2918C62.943 10.2617 61.8371 11.0343 60.6107 11.5623C59.3842 12.0902 58.063 12.3626 56.7277 12.3626C55.3924 12.3626 54.0712 12.0902 52.8448 11.5623C51.6183 11.0343 50.5124 10.2617 49.5947 9.2918C48.677 8.32189 47.9667 7.175 47.5073 5.92125C47.0478 4.6675 46.8489 3.33323 46.9227 2" stroke="#1D1D1B" stroke-width="2.07" stroke-miterlimit="10" stroke-linecap="round"/>
<path d="M21.6527 2C21.7144 4.66393 20.7157 7.24333 18.8761 9.17107C17.0365 11.0988 14.5066 12.2171 11.8427 12.28C10.5211 12.2527 9.21786 11.965 8.00763 11.4333C6.7974 10.9016 5.70395 10.1364 4.7899 9.18149C3.87586 8.22657 3.15917 7.10072 2.6809 5.8684C2.20262 4.63608 1.97215 3.32152 2.00268 2" stroke="#1D1D1B" stroke-width="2.07" stroke-miterlimit="10" stroke-linecap="round"/>
</svg>
