<svg width="72" height="22" viewBox="0 0 72 22" fill="none" xmlns="http://www.w3.org/2000/svg">
<path d="M1.0034 16C0.936191 13.4952 1.86656 11.0662 3.58994 9.24718C5.31331 7.42817 7.68857 6.36809 10.1934 6.30005C11.4362 6.32986 12.661 6.60461 13.7974 7.10855C14.9339 7.61249 15.9598 8.33571 16.8163 9.23679C17.6728 10.1379 18.343 11.1991 18.7887 12.3597C19.2344 13.5202 19.4467 14.7573 19.4134 16" stroke="#1D1D1B" stroke-width="1.94" stroke-miterlimit="10" stroke-linecap="round"/>
<path d="M60.6634 21.06C66.479 21.06 71.1934 16.3456 71.1934 10.53C71.1934 4.71444 66.479 0 60.6634 0C54.8479 0 50.1334 4.71444 50.1334 10.53C50.1334 16.3456 54.8479 21.06 60.6634 21.06Z" fill="#1D1D1B"/>
<path d="M56.8533 11.12C58.952 11.12 60.6533 9.4187 60.6533 7.32002C60.6533 5.22134 58.952 3.52002 56.8533 3.52002C54.7547 3.52002 53.0533 5.22134 53.0533 7.32002C53.0533 9.4187 54.7547 11.12 56.8533 11.12Z" fill="white"/>
<path d="M60.3634 14.54C61.5398 14.54 62.4934 13.5864 62.4934 12.41C62.4934 11.2337 61.5398 10.28 60.3634 10.28C59.187 10.28 58.2334 11.2337 58.2334 12.41C58.2334 13.5864 59.187 14.54 60.3634 14.54Z" fill="white"/>
</svg>
