<svg width="77" height="22" viewBox="0 0 77 22" fill="none" xmlns="http://www.w3.org/2000/svg">
<path d="M10.88 21.76C16.8889 21.76 21.76 16.8889 21.76 10.88C21.76 4.87114 16.8889 0 10.88 0C4.87114 0 0 4.87114 0 10.88C0 16.8889 4.87114 21.76 10.88 21.76Z" fill="#1D1D1B"/>
<path d="M65.4 21.76C71.4089 21.76 76.28 16.8889 76.28 10.88C76.28 4.87114 71.4089 0 65.4 0C59.3912 0 54.52 4.87114 54.52 10.88C54.52 16.8889 59.3912 21.76 65.4 21.76Z" fill="#1D1D1B"/>
<path d="M6.33002 11.5C8.5005 11.5 10.26 9.74049 10.26 7.57001C10.26 5.39954 8.5005 3.64001 6.33002 3.64001C4.15955 3.64001 2.40002 5.39954 2.40002 7.57001C2.40002 9.74049 4.15955 11.5 6.33002 11.5Z" fill="white"/>
<path d="M12.03 15.03C13.245 15.03 14.23 14.045 14.23 12.83C14.23 11.615 13.245 10.63 12.03 10.63C10.8149 10.63 9.82996 11.615 9.82996 12.83C9.82996 14.045 10.8149 15.03 12.03 15.03Z" fill="white"/>
<path d="M61.47 11.5C63.6405 11.5 65.4 9.74049 65.4 7.57001C65.4 5.39954 63.6405 3.64001 61.47 3.64001C59.2996 3.64001 57.54 5.39954 57.54 7.57001C57.54 9.74049 59.2996 11.5 61.47 11.5Z" fill="white"/>
<path d="M67.16 15.03C68.375 15.03 69.36 14.045 69.36 12.83C69.36 11.615 68.375 10.63 67.16 10.63C65.9449 10.63 64.96 11.615 64.96 12.83C64.96 14.045 65.9449 15.03 67.16 15.03Z" fill="white"/>
</svg>
