<svg width="70" height="33" viewBox="0 0 70 33" fill="none" xmlns="http://www.w3.org/2000/svg">
<path d="M61.34 32.58C65.9626 32.58 69.71 30.8204 69.71 28.65C69.71 26.4795 65.9626 24.72 61.34 24.72C56.7173 24.72 52.97 26.4795 52.97 28.65C52.97 30.8204 56.7173 32.58 61.34 32.58Z" fill="#EF7D7C"/>
<path d="M9.43995 32.58C14.0626 32.58 17.8099 30.8204 17.8099 28.65C17.8099 26.4795 14.0626 24.72 9.43995 24.72C4.81732 24.72 1.06995 26.4795 1.06995 28.65C1.06995 30.8204 4.81732 32.58 9.43995 32.58Z" fill="#EF7D7C"/>
<path d="M10.88 21.76C16.8889 21.76 21.76 16.8889 21.76 10.88C21.76 4.87114 16.8889 0 10.88 0C4.87114 0 0 4.87114 0 10.88C0 16.8889 4.87114 21.76 10.88 21.76Z" fill="#1D1D1B"/>
<path d="M57.09 22.38C63.0988 22.38 67.97 17.5089 67.97 11.5C67.97 5.49114 63.0988 0.619995 57.09 0.619995C51.0811 0.619995 46.21 5.49114 46.21 11.5C46.21 17.5089 51.0811 22.38 57.09 22.38Z" fill="#1D1D1B"/>
<path d="M6.33002 11.5C8.5005 11.5 10.26 9.74049 10.26 7.57001C10.26 5.39954 8.5005 3.64001 6.33002 3.64001C4.15955 3.64001 2.40002 5.39954 2.40002 7.57001C2.40002 9.74049 4.15955 11.5 6.33002 11.5Z" fill="white"/>
<path d="M12.03 15.03C13.245 15.03 14.23 14.045 14.23 12.83C14.23 11.615 13.245 10.63 12.03 10.63C10.8149 10.63 9.82996 11.615 9.82996 12.83C9.82996 14.045 10.8149 15.03 12.03 15.03Z" fill="white"/>
<path d="M53.16 12.12C55.3305 12.12 57.09 10.3605 57.09 8.19001C57.09 6.01953 55.3305 4.26001 53.16 4.26001C50.9895 4.26001 49.23 6.01953 49.23 8.19001C49.23 10.3605 50.9895 12.12 53.16 12.12Z" fill="white"/>
<path d="M58.85 15.64C60.065 15.64 61.05 14.655 61.05 13.44C61.05 12.225 60.065 11.24 58.85 11.24C57.635 11.24 56.65 12.225 56.65 13.44C56.65 14.655 57.635 15.64 58.85 15.64Z" fill="white"/>
</svg>
