<svg id="Calque_1" data-name="Calque 1" xmlns="http://www.w3.org/2000/svg" viewBox="0 0 40.24 40"><defs><style>.cls-1{fill:#fff;}.cls-2{fill:none;stroke:#fff;stroke-miterlimit:10;stroke-width:2px;}</style></defs><path class="cls-1" d="M10.38,11.62a1.48,1.48,0,0,1,.79.23,1.39,1.39,0,0,1,.52.63,1.41,1.41,0,0,1,.09.81,1.38,1.38,0,0,1-.39.72,1.35,1.35,0,0,1-.72.39,1.43,1.43,0,0,1-.82-.08,1.4,1.4,0,0,1-.63-.52A1.36,1.36,0,0,1,9,13a1.4,1.4,0,0,1,1.4-1.4Z"/><path class="cls-2" d="M17.6,1.17c-.66,1.43-2.77,5.25-6.8,5.73h0c-.11,0-1.73.73-2.3,1L8.42,8A1.55,1.55,0,0,0,6.61,9.42l0,0c-.24.23-2.81,2.61-2.31,4.08s4.07,2.62,4.12,2.64,6.39,1.53,8.7-.68h0c.33,0,4.38-.52,6.87-3.31a.19.19,0,0,0,0-.1.16.16,0,0,0,0-.1A.2.2,0,0,0,24,11.9a.16.16,0,0,0-.1,0,11.89,11.89,0,0,1-5.62-.35l0,0a.06.06,0,0,1,0,0s0,0,0,0l0,0a13,13,0,0,0,5.25-5.48.22.22,0,0,0,0-.14.29.29,0,0,0-.07-.12.21.21,0,0,0-.13,0,.23.23,0,0,0-.14,0c-1.34.86-4.6,2.74-6.66,2.18l0,0,0,0v0l0,0c.42-.57,2.64-3.65,1.62-6.52A.22.22,0,0,0,18,1.06.24.24,0,0,0,17.86,1a.29.29,0,0,0-.16,0,.26.26,0,0,0-.1.13Z"/><path class="cls-2" d="M21.48,8.86a10.53,10.53,0,0,1,5.1,2"/><path class="cls-2" d="M27.9,14.85a25.41,25.41,0,0,1,3.67,10.24v0l0,0c3.53,2.69,1.64,8.85,1.1,10.37l0,0s0,0-.05,0l0,0a.08.08,0,0,1,0,0c-.32-4.46-1.83-5.8-2.17-6l0,0h0l0,0a0,0,0,0,0,0,0C24,41,13.81,39.19,10.89,38.37a.1.1,0,0,1-.05,0,0,0,0,0,1,0,0,.05.05,0,0,1,0-.05.07.07,0,0,1,.06,0c9.66,1.05,12.31-6.8,12.67-8.06a0,0,0,0,0,0,0,.05.05,0,0,0,0,0h-.09c-2.41,1.28-5.26.08-6.3-.45,0,0,0,0,0,0a.07.07,0,0,1,0-.05l0,0h.05a5.53,5.53,0,0,0,6.62-4.21v0s-1.31-5.37-5-7.13a.31.31,0,0,0-.13,0,.27.27,0,0,0-.12,0,.28.28,0,0,0-.11.08.37.37,0,0,0-.05.11c-.34,1.15-1.81,4.83-6.53,3a.07.07,0,0,1-.06,0,.13.13,0,0,1,0-.08.16.16,0,0,1,0-.07.11.11,0,0,1,.08,0c1.17-.16,4.45-.92,4-4.59"/><path class="cls-2" d="M27.86,15.19a5.51,5.51,0,0,1,6.53,1.53.05.05,0,0,0,0,0h0l0,0s0,0,0,0c-.46-1.47-3.39-5.94-7.92-5.82"/><path class="cls-1" d="M26.39,10.5a.65.65,0,0,0-.55.44.67.67,0,0,0,0,.37.7.7,0,0,0,.19.32.68.68,0,0,0,.33.16.67.67,0,0,0,.37,0A.65.65,0,0,0,27,11.5a.6.6,0,0,0,.1-.35.62.62,0,0,0-.22-.47A.68.68,0,0,0,26.39,10.5Z"/><path class="cls-1" d="M28.38,14.66c-.09-.29-.44-.36-.79-.16a.93.93,0,0,0-.47.91c.07.29.44.36.79.15A.88.88,0,0,0,28.38,14.66Z"/></svg>