<svg width="347" height="87" viewBox="0 0 347 87" fill="none" xmlns="http://www.w3.org/2000/svg">
<g filter="url(#filter0_d_1026_848)">
<path d="M4.39854 0.00295464H17.1983V61.9248H0.0118408V4.39852C0.0118408 3.23196 0.475256 2.11318 1.30014 1.2883C2.12502 0.463415 3.2438 0 4.41036 0L4.39854 0.00295464Z" fill="white"/>
<path d="M34.3965 0.00292969H17.1982V61.9248H34.3965V0.00292969Z" fill="#F1E638"/>
<path d="M51.5947 0.00292969H34.3965V61.9248H51.5947V0.00292969Z" fill="#E31F27"/>
<path d="M68.7929 0.00292969H51.5947V61.9248H68.7929V0.00292969Z" fill="#C7017F"/>
<path d="M68.7929 0.00292969H81.5926C82.7592 0.00292969 83.878 0.466342 84.7028 1.29122C85.5277 2.11611 85.9911 3.23489 85.9911 4.40145V61.9248H68.7929V0.00292969Z" fill="#224D98"/>
<path d="M17.1982 61.9248H0V73.9594H17.1982V61.9248Z" fill="#C7017F"/>
<path d="M34.3965 61.9248H17.1982V73.9594H34.3965V61.9248Z" fill="#1D1D1B"/>
<path d="M51.5947 61.9248H34.3965V73.9594H51.5947V61.9248Z" fill="#EE76AB"/>
<path d="M68.7929 61.9248H51.5947V73.9594H68.7929V61.9248Z" fill="#1D1D1B"/>
<path d="M85.9911 61.9248H68.7929V73.9594H85.9911V61.9248Z" fill="white"/>
<path d="M0.0118408 73.9653H17.2101V86H4.39854C3.23403 85.9968 2.11828 85.532 1.29596 84.7075C0.473629 83.8829 0.0118366 82.766 0.0118408 81.6014V73.9653Z" fill="#1D1D1B"/>
<path d="M34.3965 73.9653H17.1982V86H34.3965V73.9653Z" fill="#224D98"/>
<path d="M51.5947 73.9653H34.3965V86H51.5947V73.9653Z" fill="white"/>
<path d="M68.7929 73.9653H51.5947V86H68.7929V73.9653Z" fill="#E31F27"/>
<path d="M68.7929 73.9653H85.9911V81.6014C85.9911 82.768 85.5277 83.8868 84.7028 84.7117C83.878 85.5365 82.7592 86 81.5926 86H68.7929V73.9653Z" fill="#1D1D1B"/>
</g>
<g filter="url(#filter1_d_1026_848)">
<path d="M98.5959 66.4209V21.1418H118.137C129.216 21.1418 134.757 25.5729 134.759 34.4349C134.759 43.3914 128.599 47.8697 116.279 47.8697H111.735V66.415L98.5959 66.4209ZM111.735 43.6957H114.689C119.467 43.6957 121.856 40.5329 121.856 34.2074C121.856 28.2817 119.467 25.3188 114.689 25.3188H111.735V43.6957Z" fill="white"/>
<path d="M159.738 21.1418L172.346 66.4268H159.141L156.453 56.5899H142.82L139.934 66.409H134.791L148.194 21.1418H159.738ZM144.114 52.0555H155.227L149.886 31.986L144.114 52.0555Z" fill="white"/>
<path d="M175.893 66.4209V21.1418H195.369C200.432 21.1418 204.479 22.2092 207.51 24.344C210.541 26.4788 212.056 29.3343 212.056 32.9106C212.056 38.3952 208.807 41.9676 202.308 43.6277C205.656 44.8645 207.822 46.2243 208.807 47.7072C209.792 49.1901 210.461 52.0654 210.816 56.3329C211.235 61.4197 212.087 64.7814 213.371 66.4179H199.085C198.175 64.3186 197.722 61.6974 197.724 58.5543L197.659 55.8691L197.591 52.4839C197.591 47.2631 195.489 44.6538 191.287 44.6557H189.033V66.4179L175.893 66.4209ZM189.033 40.9101H191.691C196.668 40.9101 199.156 38.3115 199.156 33.1144C199.156 27.9174 196.668 25.3188 191.691 25.3188H189.033V40.9101Z" fill="white"/>
<path d="M239.393 21.1418L251.989 66.4209H238.784L236.108 56.5899H222.472L219.586 66.409H214.443L227.846 21.1418H239.393ZM223.766 52.0614H234.879L229.538 31.986L223.766 52.0614Z" fill="white"/>
<path d="M288.258 21.1418V25.2568L266.496 61.8865H286.633V66.4327H251.965V61.8746L273.461 25.6822H255.049V21.1418H288.258Z" fill="white"/>
<path d="M305.84 21.1418V66.4268H292.704V21.1418H305.84Z" fill="white"/>
<path d="M345.486 21.1418V25.6881H334.37V66.4209H320.439V25.6822H309.258V21.1418H345.486Z" fill="white"/>
</g>
<defs>
<filter id="filter0_d_1026_848" x="0" y="0" width="86.9911" height="87" filterUnits="userSpaceOnUse" color-interpolation-filters="sRGB">
<feFlood flood-opacity="0" result="BackgroundImageFix"/>
<feColorMatrix in="SourceAlpha" type="matrix" values="0 0 0 0 0 0 0 0 0 0 0 0 0 0 0 0 0 0 127 0" result="hardAlpha"/>
<feOffset dx="1" dy="1"/>
<feComposite in2="hardAlpha" operator="out"/>
<feColorMatrix type="matrix" values="0 0 0 0 0 0 0 0 0 0 0 0 0 0 0 0 0 0 0.25 0"/>
<feBlend mode="normal" in2="BackgroundImageFix" result="effect1_dropShadow_1026_848"/>
<feBlend mode="normal" in="SourceGraphic" in2="effect1_dropShadow_1026_848" result="shape"/>
</filter>
<filter id="filter1_d_1026_848" x="98.5959" y="21.1418" width="247.89" height="46.2908" filterUnits="userSpaceOnUse" color-interpolation-filters="sRGB">
<feFlood flood-opacity="0" result="BackgroundImageFix"/>
<feColorMatrix in="SourceAlpha" type="matrix" values="0 0 0 0 0 0 0 0 0 0 0 0 0 0 0 0 0 0 127 0" result="hardAlpha"/>
<feOffset dx="1" dy="1"/>
<feComposite in2="hardAlpha" operator="out"/>
<feColorMatrix type="matrix" values="0 0 0 0 0 0 0 0 0 0 0 0 0 0 0 0 0 0 0.25 0"/>
<feBlend mode="normal" in2="BackgroundImageFix" result="effect1_dropShadow_1026_848"/>
<feBlend mode="normal" in="SourceGraphic" in2="effect1_dropShadow_1026_848" result="shape"/>
</filter>
</defs>
</svg>
