<svg width="43" height="41" viewBox="0 0 43 41" fill="none" xmlns="http://www.w3.org/2000/svg">
<path d="M2.16311 0.0013893H8.45745V29.1177H0.00592041V2.06823C0.00592041 1.5197 0.233808 0.993638 0.639449 0.60577C1.04509 0.217902 1.59526 0 2.16892 0L2.16311 0.0013893Z" fill="white"/>
<path d="M16.9146 0.00134277H8.45728V29.1177H16.9146V0.00134277Z" fill="#F1E638"/>
<path d="M25.372 0.00134277H16.9147V29.1177H25.372V0.00134277Z" fill="#E31F27"/>
<path d="M33.8293 0.00134277H25.372V29.1177H33.8293V0.00134277Z" fill="#C7017F"/>
<path d="M33.8293 0.00134277H40.1237C40.6974 0.00134277 41.2475 0.219244 41.6532 0.607112C42.0588 0.99498 42.2867 1.52104 42.2867 2.06957V29.1177H33.8293V0.00134277Z" fill="#224D98"/>
<path d="M8.45734 29.1177H0V34.7765H8.45734V29.1177Z" fill="#C7017F"/>
<path d="M16.9146 29.1177H8.45728V34.7765H16.9146V29.1177Z" fill="#1D1D1B"/>
<path d="M25.372 29.1177H16.9147V34.7765H25.372V29.1177Z" fill="#EE76AB"/>
<path d="M33.8293 29.1177H25.372V34.7765H33.8293V29.1177Z" fill="#1D1D1B"/>
<path d="M42.2867 29.1177H33.8293V34.7765H42.2867V29.1177Z" fill="white"/>
<path d="M0.00579834 34.7793H8.46314V40.4381H2.16299C1.59033 40.4366 1.04166 40.2181 0.637271 39.8304C0.232886 39.4427 0.00579627 38.9174 0.00579834 38.3699V34.7793Z" fill="#1D1D1B"/>
<path d="M16.9146 34.7793H8.45728V40.4381H16.9146V34.7793Z" fill="#224D98"/>
<path d="M25.372 34.7793H16.9147V40.4381H25.372V34.7793Z" fill="white"/>
<path d="M33.8293 34.7793H25.372V40.4381H33.8293V34.7793Z" fill="#E31F27"/>
<path d="M33.8293 34.7793H42.2867V38.3699C42.2867 38.9184 42.0588 39.4445 41.6532 39.8323C41.2475 40.2202 40.6974 40.4381 40.1237 40.4381H33.8293V34.7793Z" fill="#1D1D1B"/>
</svg>
