<svg width="231" height="163" viewBox="0 0 231 163" fill="none" xmlns="http://www.w3.org/2000/svg">
<path d="M52.1872 80.8261C52.1872 80.8261 34.1979 99.4562 20.7569 84.9406C20.7569 84.9406 11.5382 73.5346 32.5212 63.8756C32.5212 63.8756 7.34974 65.8317 10.3502 47.9571C10.3502 47.9571 15.5705 34.0891 34.5917 38.9658C34.5917 38.9658 13.6019 22.5819 29.5275 12.8217C45.4531 3.06144 58.4869 28.0319 58.9757 29.8868C58.9757 29.8868 21.0284 46.9453 52.1872 80.8261Z" fill="#F6B4B6" stroke="white" stroke-width="20" stroke-miterlimit="10"/>
<path d="M54.2236 82.0065C56.681 83.4297 60.8152 84.7787 65.0851 85.3791C65.0851 85.3791 63.7274 96.1106 67.4882 104.178C67.4882 104.178 68.262 122.39 75.7089 123.233C83.1558 124.076 85.4775 117.378 90.4941 104.947C90.4941 104.947 91.0033 104.771 91.173 105.021C91.3427 105.27 94.0037 119.604 99.3802 120.117C104.757 120.629 104.648 112.279 104.858 104.947C104.858 104.947 122.121 104.879 125.774 103.712C125.774 103.712 124.511 117.203 132.705 118.552C140.898 119.901 140.301 102.808 140.301 102.808C140.301 102.808 144.143 102.808 145.25 102.64C145.25 102.64 145.059 119.044 155.296 118.889C165.533 118.734 169.403 103.119 169.301 78.6676C169.301 78.6676 197.595 94.3906 159.96 130.956C159.96 130.956 149.35 145.546 181.466 152.257C181.466 152.257 204.302 157.653 215.727 131.475C226.256 107.341 214.261 88.4346 214.261 88.4346C214.261 88.4346 208.022 74.081 197.697 69.0154C193.149 66.7962 193.026 66.3173 169.647 67.2616C169.647 67.2616 151.705 58.068 138.889 58.3108C138.889 58.3108 122.597 56.0175 111.525 56.7325C111.525 56.7325 113.106 39.7819 92.4628 29.5631C92.4628 29.5631 78.4515 20.8551 60.1227 27.8363C54.9071 29.8423 50.2813 33.1164 46.6689 37.3586C43.0564 41.6009 40.5727 46.6758 39.4452 52.1188C38.1011 58.3513 34.5711 70.6274 54.2236 82.0065Z" fill="#FBDFE0" stroke="white" stroke-width="20" stroke-miterlimit="10"/>
<path d="M65.0852 85.3453C65.0852 85.3453 64.5082 91.5508 64.9902 93.8105C65.4246 95.834 98.7626 99.8811 109.997 85.9187C109.997 85.9187 98.8644 81.7097 99.9709 79.7941C99.9777 79.7941 74.4125 88.4076 65.0852 85.3453Z" fill="#FAD7D8" stroke="white" stroke-width="20" stroke-miterlimit="10"/>
<path d="M98.8236 80.2662C98.8236 80.2662 116.813 98.8895 130.254 84.374C130.254 84.374 139.473 72.968 118.483 63.3157C118.483 63.3157 143.654 65.265 140.661 47.3904C140.661 47.3904 135.44 33.5224 116.412 38.3991C116.412 38.3991 137.402 22.0152 121.483 12.255C105.565 2.49479 92.4493 27.4653 91.9402 29.3202C91.9402 29.3202 129.976 46.3652 98.8236 80.2662Z" fill="#F6B4B6" stroke="white" stroke-width="20" stroke-miterlimit="10"/>
<path d="M102.238 76.4349C102.238 76.4349 110.384 85.7499 118.198 85.2036C126.011 84.6572 126.344 77.7839 125.163 74.9982C123.982 72.2125 109.943 62.405 109.943 62.405C107.547 68.4622 102.238 76.4349 102.238 76.4349Z" fill="#F9CCCC" stroke="white" stroke-width="20" stroke-miterlimit="10"/>
<path d="M54.7395 30.467C54.7395 30.467 47.5981 18.3729 39.8593 17.3477C32.1205 16.3224 30.3962 22.9664 30.9732 25.9477C31.5502 28.9291 43.7354 41.3334 43.7354 41.3334C47.6048 34.885 54.7395 30.467 54.7395 30.467Z" fill="#F9CCCC" stroke="white" stroke-width="20" stroke-miterlimit="10"/>
<path d="M41.2103 46.5406C41.2103 46.5406 28.3802 40.6925 21.4492 44.2607C14.5182 47.8289 16.9349 54.257 19.1276 56.402C21.3202 58.5469 38.3117 60.0578 38.3117 60.0578C38.5211 55.4241 39.5005 50.8567 41.2103 46.5406Z" fill="#F9CCCC" stroke="white" stroke-width="20" stroke-miterlimit="10"/>
<path d="M39.2893 66.1217C39.2893 66.1217 27.0226 69.5752 24.8503 75.9089C22.678 82.2426 28.0409 84.8125 30.6816 84.826C33.3223 84.8394 46.0302 76.0573 46.0302 76.0573C42.9558 73.3809 40.6331 69.9574 39.2893 66.1217Z" fill="#F9CCCC" stroke="white" stroke-width="20" stroke-miterlimit="10"/>
<path d="M110.778 58.8301C110.778 58.8301 124.918 62.432 130.811 56.4626C136.703 50.4932 131.931 44.2539 129.209 43.2691C123.466 41.1781 108.232 43.8357 108.232 43.8357C111.199 48.1796 110.778 58.8301 110.778 58.8301Z" fill="#F9CCCC" stroke="white" stroke-width="20" stroke-miterlimit="10"/>
<path d="M106.101 40.7195C106.101 40.7195 117.227 34.2442 119.589 26.1567C121.911 18.2042 112.495 16.1335 109.78 17.125C104.037 19.2295 95.5244 31.2898 95.5244 31.2898C97.3233 31.9845 106.101 40.7195 106.101 40.7195Z" fill="#F9CCCC" stroke="white" stroke-width="20" stroke-miterlimit="10"/>
<path d="M179.524 74.796C179.524 74.796 204.94 102.991 170.394 130.605C170.394 130.605 164.76 138.666 174.718 144.487C184.677 150.308 206.359 136.554 210.887 111.436C215.415 86.3167 190.311 74.715 190.311 74.715C190.311 74.715 180.909 71.2885 179.524 74.796Z" fill="#F9D3D3" stroke="white" stroke-width="20" stroke-miterlimit="10"/>
<path d="M63.9855 51.9973H45.4939" stroke="white" stroke-width="20" stroke-miterlimit="10" stroke-linecap="round"/>
<path d="M46.2268 52.5775C46.2268 54.9046 48.4534 56.7865 51.2027 56.7865C53.952 56.7865 56.1854 54.9046 56.1854 52.5775" fill="#1D1D1B"/>
<path d="M46.2268 52.5775C46.2268 54.9046 48.4534 56.7865 51.2027 56.7865C53.952 56.7865 56.1854 54.9046 56.1854 52.5775" stroke="white" stroke-width="20" stroke-miterlimit="10"/>
<path d="M94.7165 51.9973H76.2249" stroke="white" stroke-width="20" stroke-miterlimit="10" stroke-linecap="round"/>
<path d="M77.3789 52.5775C77.3789 54.9046 79.5105 56.7865 82.1308 56.7865C84.7511 56.7865 86.8827 54.9046 86.8827 52.5775" fill="#1D1D1B"/>
<path d="M77.3789 52.5775C77.3789 54.9046 79.5105 56.7865 82.1308 56.7865C84.7511 56.7865 86.8827 54.9046 86.8827 52.5775" stroke="white" stroke-width="20" stroke-miterlimit="10"/>
<path d="M77.3789 75.43C77.3789 74.4176 77.1782 73.415 76.7883 72.4797C76.3984 71.5443 75.8268 70.6944 75.1063 69.9785C74.3858 69.2625 73.5304 68.6946 72.5891 68.3072C71.6477 67.9198 70.6387 67.7203 69.6198 67.7203C68.6008 67.7203 67.5918 67.9198 66.6505 68.3072C65.7091 68.6946 64.8537 69.2625 64.1332 69.9785C63.4127 70.6944 62.8412 71.5443 62.4512 72.4797C62.0613 73.415 61.8606 74.4176 61.8606 75.43" fill="#1D1D1B"/>
<path d="M77.3789 75.43C77.3789 74.4176 77.1782 73.415 76.7883 72.4797C76.3984 71.5443 75.8268 70.6944 75.1063 69.9785C74.3858 69.2625 73.5304 68.6946 72.5891 68.3072C71.6477 67.9198 70.6387 67.7203 69.6198 67.7203C68.6008 67.7203 67.5918 67.9198 66.6505 68.3072C65.7091 68.6946 64.8537 69.2625 64.1332 69.9785C63.4127 70.6944 62.8412 71.5443 62.4512 72.4797C62.0613 73.415 61.8606 74.4176 61.8606 75.43" stroke="white" stroke-width="20" stroke-miterlimit="10"/>
<path d="M52.0854 81.1297C52.0854 81.1297 34.0961 99.7597 20.655 85.2374C20.655 85.2374 11.4363 73.8382 32.4261 64.1791C32.4261 64.1791 7.24787 66.1285 10.2483 48.2539C10.2483 48.2539 15.4686 34.3859 34.4898 39.2694C34.4898 39.2694 13.5068 22.8787 29.4256 13.1252C45.3445 3.37174 58.385 28.3085 58.8942 30.1634C58.8942 30.1634 20.9605 47.2286 52.0854 81.1297Z" fill="#F6B4B6"/>
<path d="M54.1084 82.283C56.5726 83.7129 60.7 85.062 64.9699 85.6555C64.9699 85.6555 63.6122 96.3938 67.373 104.454C67.373 104.454 68.1536 122.666 75.5937 123.516C83.0339 124.366 85.3623 117.661 90.3789 105.23C90.3789 105.23 90.8881 105.048 91.0578 105.297C91.2275 105.547 93.8885 119.887 99.265 120.4C104.641 120.912 104.54 112.555 104.743 105.23C104.743 105.23 122.006 105.162 125.665 103.996C125.665 103.996 124.396 117.452 132.589 118.835C140.783 120.218 140.186 103.092 140.186 103.092C140.186 103.092 144.028 103.092 145.134 102.916C145.134 102.916 144.944 119.32 155.181 119.165C165.418 119.01 169.294 103.402 169.186 78.9509C169.186 78.9509 197.48 94.667 159.852 131.239C159.852 131.239 149.235 145.829 181.357 152.54C181.357 152.54 204.187 157.936 215.612 131.752C226.141 107.618 214.145 88.7178 214.145 88.7178C214.145 88.7178 207.927 74.3911 197.602 69.3525C193.054 67.1266 192.932 66.6545 169.552 67.5988C169.552 67.5988 151.61 58.4052 138.794 58.6413C138.794 58.6413 122.502 56.3479 111.43 57.0696C111.43 57.0696 113.012 40.1191 92.3679 29.8935C92.3679 29.8935 78.3634 21.1855 60.0279 28.1735C54.8233 30.1699 50.2045 33.4292 46.5927 37.6541C42.981 41.8791 40.4912 46.9353 39.3504 52.3615C37.9995 58.6345 34.4695 70.9039 54.1084 82.283Z" fill="#FBDFE0"/>
<path d="M64.9902 85.6219C64.9902 85.6219 64.42 91.8274 64.902 94.0938C65.3365 96.1173 98.6676 100.164 109.902 86.1952C109.902 86.1952 98.7762 81.993 99.8759 80.0774C99.8759 80.0774 74.3175 88.6909 64.9902 85.6219Z" fill="#FAD7D8"/>
<path d="M98.7218 80.5427C98.7218 80.5427 116.711 99.1728 130.152 84.6505C130.152 84.6505 139.371 73.2512 118.381 63.5922C118.381 63.5922 143.559 65.5483 140.559 47.6669C140.559 47.6669 135.339 33.7989 116.317 38.6824C116.317 38.6824 137.3 22.2985 121.382 12.5383C105.463 2.77807 92.3475 27.7418 91.8384 29.6035C91.8384 29.6035 129.874 46.6417 98.7218 80.5427Z" fill="#F6B4B6"/>
<path d="M102.136 76.7114C102.136 76.7114 110.283 86.0264 118.096 85.4801C125.91 84.9337 126.242 78.0604 125.061 75.2747C123.88 72.4889 109.841 62.6815 109.841 62.6815C107.452 68.7387 102.136 76.7114 102.136 76.7114Z" fill="#F9CCCC"/>
<path d="M54.6379 30.7502C54.6379 30.7502 47.5032 18.6495 39.7644 17.631C32.0257 16.6124 30.2607 23.2429 30.8716 26.231C31.4826 29.2191 43.6338 41.6099 43.6338 41.6099C47.5032 35.1683 54.6379 30.7502 54.6379 30.7502Z" fill="#F9CCCC"/>
<path d="M41.1086 46.8171C41.1086 46.8171 28.2785 40.969 21.3476 44.544C14.4166 48.1189 16.8333 54.52 19.0327 56.6515C21.2322 58.783 38.21 60.3074 38.21 60.3074C38.4235 55.6829 39.4028 51.125 41.1086 46.8171Z" fill="#F9CCCC"/>
<path d="M39.1533 66.3982C39.1533 66.3982 26.8866 69.8517 24.7143 76.1921C22.542 82.5326 27.9049 85.089 30.5456 85.1024C33.1863 85.1159 45.8942 76.3338 45.8942 76.3338C42.8226 73.6549 40.5004 70.2322 39.1533 66.3982Z" fill="#F9CCCC"/>
<path d="M110.676 59.1066C110.676 59.1066 124.817 62.7153 130.709 56.7391C136.601 50.7629 131.829 44.5371 129.114 43.5456C123.364 41.4613 108.131 44.1122 108.131 44.1122C111.097 48.4493 110.676 59.1066 110.676 59.1066Z" fill="#F9CCCC"/>
<path d="M106.006 41.0298C106.006 41.0298 117.125 34.5544 119.488 26.4738C121.809 18.4875 112.394 16.41 109.678 17.4218C103.935 19.5195 95.4226 31.5866 95.4226 31.5866C97.2215 32.2611 106.006 41.0298 106.006 41.0298Z" fill="#F9CCCC"/>
<path d="M179.423 75.0791C179.423 75.0791 204.838 103.267 170.292 130.882C170.292 130.882 164.658 138.942 174.623 144.77C184.589 150.598 206.257 136.831 210.785 111.719C215.313 86.6066 190.209 74.9982 190.209 74.9982C190.209 74.9982 180.807 71.5649 179.423 75.0791Z" fill="#F9D3D3"/>
<g clip-path="url(#clip0_412_3320)">
<path d="M91.791 69.0761C94.9291 69.0761 97.4729 67.8893 97.4729 66.4253C97.4729 64.9612 94.9291 63.7744 91.791 63.7744C88.653 63.7744 86.1091 64.9612 86.1091 66.4253C86.1091 67.8893 88.653 69.0761 91.791 69.0761Z" fill="#EF7D7C"/>
<path d="M56.5591 69.0761C59.6971 69.0761 62.241 67.8893 62.241 66.4253C62.241 64.9612 59.6971 63.7744 56.5591 63.7744C53.4211 63.7744 50.8772 64.9612 50.8772 66.4253C50.8772 67.8893 53.4211 69.0761 56.5591 69.0761Z" fill="#EF7D7C"/>
<path d="M57.5367 61.7779C61.6157 61.7779 64.9225 58.4922 64.9225 54.4392C64.9225 50.3861 61.6157 47.1005 57.5367 47.1005C53.4576 47.1005 50.1509 50.3861 50.1509 54.4392C50.1509 58.4922 53.4576 61.7779 57.5367 61.7779Z" fill="#1D1D1B"/>
<path d="M88.9061 62.1961C92.9851 62.1961 96.2919 58.9104 96.2919 54.8574C96.2919 50.8043 92.9851 47.5187 88.9061 47.5187C84.827 47.5187 81.5203 50.8043 81.5203 54.8574C81.5203 58.9104 84.827 62.1961 88.9061 62.1961Z" fill="#1D1D1B"/>
<path d="M54.4479 54.8573C55.9213 54.8573 57.1157 53.6705 57.1157 52.2065C57.1157 50.7425 55.9213 49.5557 54.4479 49.5557C52.9745 49.5557 51.78 50.7425 51.78 52.2065C51.78 53.6705 52.9745 54.8573 54.4479 54.8573Z" fill="white"/>
<path d="M58.3174 57.2384C59.1422 57.2384 59.8109 56.574 59.8109 55.7544C59.8109 54.9349 59.1422 54.2705 58.3174 54.2705C57.4926 54.2705 56.824 54.9349 56.824 55.7544C56.824 56.574 57.4926 57.2384 58.3174 57.2384Z" fill="white"/>
<path d="M86.2382 55.2756C87.7116 55.2756 88.906 54.0887 88.906 52.6247C88.906 51.1607 87.7116 49.9739 86.2382 49.9739C84.7648 49.9739 83.5703 51.1607 83.5703 52.6247C83.5703 54.0887 84.7648 55.2756 86.2382 55.2756Z" fill="white"/>
<path d="M90.1006 57.6499C90.9254 57.6499 91.5941 56.9855 91.5941 56.1659C91.5941 55.3464 90.9254 54.682 90.1006 54.682C89.2758 54.682 88.6072 55.3464 88.6072 56.1659C88.6072 56.9855 89.2758 57.6499 90.1006 57.6499Z" fill="white"/>
<path d="M79.409 69.5212C79.409 71.1671 78.0513 73.1501 76.2456 73.1501C75.0101 73.1501 73.6863 71.538 73.3809 70.8703C73.3062 70.7219 73.3062 70.7219 73.2519 70.8703C72.9892 71.5331 72.5338 72.1032 71.9439 72.508C71.3539 72.9128 70.656 73.134 69.9391 73.1434C68.1538 73.1434 66.9998 71.248 66.9998 69.6022" stroke="#1D1D1B" stroke-width="1.6" stroke-miterlimit="10" stroke-linecap="round"/>
</g>
<defs>
<clipPath id="clip0_412_3320">
<rect width="47.3221" height="26.5893" fill="white" transform="translate(50.1509 47.1005)"/>
</clipPath>
</defs>
</svg>
