<svg width="60" height="46" viewBox="0 0 60 46" fill="none" xmlns="http://www.w3.org/2000/svg">
<g clip-path="url(#clip0_413_10951)">
<path d="M0.247521 24.8327C0.247521 24.8327 -0.253363 30.2542 0.165023 32.2342C0.542159 34.0021 29.4815 37.5378 39.234 25.3336C39.234 25.3336 29.5699 21.6624 30.5304 19.9888C30.5304 19.9888 8.33827 27.514 0.247521 24.8327Z" fill="#3C3C3B"/>
<path d="M60 0.990009C60.0589 -0.0412491 53.4708 0.400719 40.4007 1.24326e-06C40.3675 -0.000114136 40.3347 0.00780283 40.3052 0.0230781C40.2757 0.0383534 40.2503 0.0605345 40.2312 0.0877331C40.2121 0.114932 40.1998 0.146342 40.1955 0.17929C40.1912 0.212239 40.1948 0.245749 40.2062 0.276968C41.3317 3.35306 50.0884 31.0261 0.247478 29.3349C0.220391 29.3341 0.193414 29.3386 0.16809 29.3483C0.142766 29.3579 0.119592 29.3725 0.0998904 29.3911C0.0801892 29.4097 0.0643479 29.432 0.0532718 29.4567C0.0421958 29.4815 0.0361022 29.5081 0.0353394 29.5352C0.0353394 30.7433 0.0648031 36.9956 2.22155 41.0087C2.22415 41.0283 2.22415 41.0481 2.22155 41.0676C2.46315 42.4819 2.32762 42.5409 2.55154 44.0612C2.55753 44.0974 2.57255 44.1315 2.59521 44.1604C2.61787 44.1892 2.64744 44.2119 2.68119 44.2262C3.8067 44.6211 13.2292 47.762 21.2316 44.5621C21.6735 44.3853 21.9328 42.2816 22.3571 41.9339C22.4358 41.8935 22.5246 41.877 22.6125 41.8865C22.7004 41.8959 22.7837 41.9308 22.8521 41.9869C22.8521 41.9869 23.2587 44.2969 23.4413 44.3853C24.0306 44.7036 33.2115 44.2675 34.5551 43.9964C34.5998 43.9893 34.6405 43.9664 34.6698 43.9318C34.699 43.8971 34.7147 43.8531 34.7142 43.8078C34.7142 43.3128 34.8026 42.6293 34.8085 42.1814C34.8067 42.1554 34.8106 42.1293 34.8197 42.105C34.8289 42.0806 34.8431 42.0584 34.8616 42.04C34.88 42.0216 34.9021 42.0073 34.9265 41.9982C34.9509 41.989 34.9769 41.9852 35.0029 41.9869C40.1731 42.0562 45.3431 41.8378 50.4891 41.3328C55.9243 28.5219 59.1405 14.8797 60 0.990009Z" fill="#343434"/>
</g>
<defs>
<clipPath id="clip0_413_10951">
<rect width="60" height="46" fill="white"/>
</clipPath>
</defs>
</svg>
