<svg width="61" height="46" viewBox="0 0 61 46" fill="none" xmlns="http://www.w3.org/2000/svg">
<path d="M0.24923 24.8327C0.24923 24.8327 -0.251654 30.2542 0.166732 32.2342C0.543868 34.0021 29.4832 37.5378 39.2357 25.3336C39.2357 25.3336 29.5716 21.6624 30.5321 19.9888C30.5321 19.9888 8.33998 27.514 0.24923 24.8327Z" fill="#CF89BA"/>
<path d="M60.0017 0.990009C60.0606 -0.0412491 53.4725 0.400719 40.4024 1.24326e-06C40.3692 -0.000114136 40.3364 0.00780283 40.3069 0.0230781C40.2774 0.0383534 40.252 0.0605345 40.2329 0.0877331C40.2138 0.114932 40.2015 0.146342 40.1972 0.17929C40.1929 0.212239 40.1965 0.245749 40.2079 0.276968C41.3335 3.35306 50.0901 31.0261 0.249187 29.3349C0.2221 29.3341 0.195123 29.3386 0.169799 29.3483C0.144475 29.3579 0.121301 29.3725 0.101599 29.3911C0.0818981 29.4097 0.0660568 29.432 0.0549808 29.4567C0.0439048 29.4815 0.0378112 29.5081 0.0370483 29.5352C0.0370483 30.7433 0.0665121 36.9956 2.22326 41.0087C2.22586 41.0283 2.22586 41.0481 2.22326 41.0676C2.46486 42.4819 2.32933 42.5409 2.55325 44.0612C2.55924 44.0974 2.57426 44.1315 2.59692 44.1604C2.61958 44.1892 2.64915 44.2119 2.68289 44.2262C3.80841 44.6211 13.2309 47.762 21.2333 44.5621C21.6752 44.3853 21.9345 42.2816 22.3588 41.9339C22.4375 41.8935 22.5263 41.877 22.6142 41.8865C22.7022 41.8959 22.7854 41.9308 22.8538 41.9869C22.8538 41.9869 23.2604 44.2969 23.4431 44.3853C24.0323 44.7036 33.2132 44.2675 34.5568 43.9964C34.6015 43.9893 34.6422 43.9664 34.6715 43.9318C34.7007 43.8971 34.7164 43.8531 34.7159 43.8078C34.7159 43.3128 34.8043 42.6293 34.8102 42.1814C34.8084 42.1554 34.8123 42.1293 34.8214 42.105C34.8306 42.0806 34.8449 42.0584 34.8633 42.04C34.8817 42.0216 34.9038 42.0073 34.9282 41.9982C34.9526 41.989 34.9787 41.9852 35.0046 41.9869C40.1748 42.0562 45.3449 41.8378 50.4908 41.3328C55.9261 28.5219 59.1422 14.8797 60.0017 0.990009Z" fill="#E4ACCF"/>
</svg>
