<svg width="59" height="46" viewBox="0 0 59 46" fill="none" xmlns="http://www.w3.org/2000/svg">
<g clip-path="url(#clip0_413_10919)">
<path d="M0.243367 24.8327C0.243367 24.8327 -0.249168 30.2542 0.162244 32.2342C0.533094 34.0021 28.9901 37.5378 38.58 25.3336C38.58 25.3336 29.077 21.6624 30.0215 19.9888C30.0215 19.9888 8.19927 27.514 0.243367 24.8327Z" fill="#8EA7D7"/>
<path d="M59 0.990009C59.058 -0.0412491 52.5797 0.400719 39.7274 1.24326e-06C39.6947 -0.000114136 39.6625 0.00780283 39.6335 0.0230781C39.6044 0.0383534 39.5795 0.0605345 39.5607 0.0877331C39.5419 0.114932 39.5299 0.146342 39.5256 0.17929C39.5213 0.212239 39.525 0.245749 39.5362 0.276968C40.6429 3.35306 49.2536 31.0261 0.243393 29.3349C0.216757 29.3341 0.19023 29.3386 0.165329 29.3483C0.140427 29.3579 0.117638 29.3725 0.0982652 29.3911C0.0788923 29.4097 0.0633151 29.432 0.0524236 29.4567C0.0415322 29.4815 0.0355402 29.5081 0.03479 29.5352C0.03479 30.7433 0.0637627 36.9956 2.18456 41.0087C2.18712 41.0283 2.18712 41.0481 2.18456 41.0676C2.42214 42.4819 2.28887 42.5409 2.50906 44.0612C2.51494 44.0974 2.52971 44.1315 2.552 44.1604C2.57428 44.1892 2.60336 44.2119 2.63654 44.2262C3.74329 44.6211 13.0088 47.762 20.8777 44.5621C21.3123 44.3853 21.5673 42.2816 21.9845 41.9339C22.0619 41.8935 22.1492 41.877 22.2357 41.8865C22.3221 41.8959 22.404 41.9308 22.4712 41.9869C22.4712 41.9869 22.8711 44.2969 23.0507 44.3853C23.6301 44.7036 32.658 44.2675 33.9792 43.9964C34.0232 43.9893 34.0632 43.9664 34.092 43.9318C34.1207 43.8971 34.1362 43.8531 34.1357 43.8078C34.1357 43.3128 34.2226 42.6293 34.2284 42.1814C34.2267 42.1554 34.2304 42.1293 34.2394 42.105C34.2484 42.0806 34.2625 42.0584 34.2806 42.04C34.2987 42.0216 34.3205 42.0073 34.3444 41.9982C34.3684 41.989 34.394 41.9852 34.4196 41.9869C39.5036 42.0562 44.5875 41.8378 49.6476 41.3328C54.9923 28.5219 58.1549 14.8797 59 0.990009Z" fill="#ABB4DD"/>
</g>
<defs>
<clipPath id="clip0_413_10919">
<rect width="59" height="46" fill="white"/>
</clipPath>
</defs>
</svg>
