<svg width="60" height="46" viewBox="0 0 60 46" fill="none" xmlns="http://www.w3.org/2000/svg">
<path d="M0.245076 24.8327C0.245076 24.8327 -0.247459 30.2542 0.163953 32.2342C0.534803 34.0021 28.9918 37.5378 38.5817 25.3336C38.5817 25.3336 29.0787 21.6624 30.0232 19.9888C30.0232 19.9888 8.20098 27.514 0.245076 24.8327Z" fill="#109066"/>
<path d="M59.0017 0.990009C59.0597 -0.0412491 52.5814 0.400719 39.7291 1.24326e-06C39.6964 -0.000114136 39.6642 0.00780283 39.6352 0.0230781C39.6061 0.0383534 39.5812 0.0605345 39.5624 0.0877331C39.5436 0.114932 39.5316 0.146342 39.5273 0.17929C39.523 0.212239 39.5267 0.245749 39.5379 0.276968C40.6446 3.35306 49.2553 31.0261 0.245102 29.3349C0.218466 29.3341 0.191939 29.3386 0.167038 29.3483C0.142136 29.3579 0.119347 29.3725 0.0999742 29.3911C0.0806013 29.4097 0.065024 29.432 0.0541326 29.4567C0.0432412 29.4815 0.0372492 29.5081 0.036499 29.5352C0.036499 30.7433 0.0654717 36.9956 2.18627 41.0087C2.18883 41.0283 2.18883 41.0481 2.18627 41.0676C2.42385 42.4819 2.29057 42.5409 2.51077 44.0612C2.51665 44.0974 2.53142 44.1315 2.55371 44.1604C2.57599 44.1892 2.60507 44.2119 2.63825 44.2262C3.745 44.6211 13.0105 47.762 20.8795 44.5621C21.314 44.3853 21.569 42.2816 21.9862 41.9339C22.0636 41.8935 22.1509 41.877 22.2374 41.8865C22.3238 41.8959 22.4057 41.9308 22.473 41.9869C22.473 41.9869 22.8728 44.2969 23.0524 44.3853C23.6319 44.7036 32.6598 44.2675 33.9809 43.9964C34.0249 43.9893 34.0649 43.9664 34.0937 43.9318C34.1224 43.8971 34.1379 43.8531 34.1374 43.8078C34.1374 43.3128 34.2243 42.6293 34.2301 42.1814C34.2284 42.1554 34.2321 42.1293 34.2411 42.105C34.2501 42.0806 34.2642 42.0584 34.2823 42.04C34.3004 42.0216 34.3222 42.0073 34.3461 41.9982C34.3701 41.989 34.3957 41.9852 34.4213 41.9869C39.5053 42.0562 44.5892 41.8378 49.6493 41.3328C54.994 28.5219 58.1566 14.8797 59.0017 0.990009Z" fill="#3FA369"/>
</svg>
