<svg width="35" height="35" viewBox="0 0 35 35" fill="none" xmlns="http://www.w3.org/2000/svg">
<path d="M17.5 3.5C9.76801 3.5 3.5 9.76801 3.5 17.5C3.5 25.232 9.76801 31.5 17.5 31.5C25.232 31.5 31.5 25.232 31.5 17.5C31.5 9.76801 25.232 3.5 17.5 3.5ZM0 17.5C0 7.83502 7.83502 0 17.5 0C27.165 0 35 7.83502 35 17.5C35 27.165 27.165 35 17.5 35C7.83502 35 0 27.165 0 17.5Z" fill="white"/>
<path d="M17.5 14C18.4665 14 19.25 14.7835 19.25 15.75V26.25C19.25 27.2165 18.4665 28 17.5 28C16.5335 28 15.75 27.2165 15.75 26.25V15.75C15.75 14.7835 16.5335 14 17.5 14Z" fill="white"/>
<path d="M20.125 9.625C20.125 11.0747 18.9497 12.25 17.5 12.25C16.0503 12.25 14.875 11.0747 14.875 9.625C14.875 8.17525 16.0503 7 17.5 7C18.9497 7 20.125 8.17525 20.125 9.625Z" fill="white"/>
</svg>
