<svg width="30" height="39" viewBox="0 0 30 39" fill="none" xmlns="http://www.w3.org/2000/svg">
<path d="M16.5152 38.1841C15.6784 39.272 14.3216 39.272 13.4848 38.1841L0.62763 21.4698C-0.20921 20.3819 -0.20921 18.6181 0.62763 17.5302L13.4848 0.815913C14.3216 -0.271978 15.6784 -0.271978 16.5152 0.815913C17.3521 1.9038 17.3521 3.66762 16.5152 4.75551L5.17331 19.5L16.5152 34.2445C17.3521 35.3324 17.3521 37.0962 16.5152 38.1841ZM29.3724 38.1841C28.5355 39.272 27.1787 39.272 26.3419 38.1841L13.4848 21.4698C13.0829 20.9474 12.8571 20.2388 12.8571 19.5C12.8571 18.7612 13.0829 18.0526 13.4848 17.5302L26.3419 0.815914C27.1788 -0.271977 28.5355 -0.271977 29.3724 0.815914C30.2092 1.9038 30.2092 3.66762 29.3724 4.75551L18.0305 19.5L29.3724 34.2445C30.2092 35.3324 30.2092 37.0962 29.3724 38.1841Z" fill="white"/>
</svg>
