<svg width="30" height="39" viewBox="0 0 30 39" fill="none" xmlns="http://www.w3.org/2000/svg">
<path d="M13.4848 0.815916C14.3216 -0.271972 15.6784 -0.271972 16.5152 0.815917L29.3724 17.5302C30.2092 18.6181 30.2092 20.3819 29.3724 21.4698L16.5152 38.1841C15.6784 39.272 14.3216 39.272 13.4848 38.1841C12.6479 37.0962 12.6479 35.3324 13.4848 34.2445L24.8267 19.5L13.4848 4.75551C12.6479 3.66762 12.6479 1.90381 13.4848 0.815916ZM0.627631 0.815917C1.46447 -0.271972 2.82125 -0.271972 3.65809 0.815917L16.5152 17.5302C16.9171 18.0526 17.1429 18.7612 17.1429 19.5C17.1429 20.2388 16.9171 20.9474 16.5152 21.4698L3.65809 38.1841C2.82125 39.272 1.46447 39.272 0.627628 38.1841C-0.209209 37.0962 -0.209209 35.3324 0.627629 34.2445L11.9695 19.5L0.62763 4.75551C-0.209207 3.66762 -0.209207 1.90381 0.627631 0.815917Z" fill="white"/>
</svg>
