<svg width="31" height="22" viewBox="0 0 31 22" fill="none" xmlns="http://www.w3.org/2000/svg">
<g clip-path="url(#clip0_611_699)">
<path d="M6.21506 10.7827C6.21506 10.7827 3.55864 13.5251 1.57384 11.3883C1.57384 11.3883 0.212543 9.70933 3.31104 8.28749C3.30803 8.29047 -0.400941 8.57841 0.0371182 5.9472C0.0371182 5.9472 0.807983 3.90579 3.61678 4.62366C3.61678 4.62366 0.51728 2.21189 2.86897 0.775148C5.22066 -0.66159 7.14531 3.01118 7.21749 3.28423C7.21749 3.28423 1.61393 5.79529 6.21506 10.7827Z" fill="#5A5A5A"/>
<path d="M6.59195 3.36961C6.59195 3.36961 5.5374 1.58932 4.39464 1.4384C3.25187 1.28748 2.99726 2.26549 3.08246 2.70436C3.16767 3.14322 4.96702 4.96918 4.96702 4.96918C5.5384 4.01996 6.59195 3.36961 6.59195 3.36961Z" fill="#5A5A5A"/>
<path d="M4.59416 5.73571C4.59416 5.73571 2.69958 4.87486 1.6761 5.40011C0.652625 5.92536 1.00949 6.8716 1.33327 7.18734C1.65706 7.50309 4.16612 7.7255 4.16612 7.7255C4.19705 7.04339 4.34168 6.37105 4.59416 5.73571Z" fill="#5A5A5A"/>
<path d="M4.31047 8.6181C4.31047 8.6181 2.49408 9.12647 2.1733 10.0588C1.85253 10.9912 2.64444 11.3695 3.03439 11.3714C3.42433 11.3734 5.30087 10.0876 5.30087 10.0876C4.84771 9.6911 4.50641 9.1847 4.31047 8.6181Z" fill="#5A5A5A"/>
<path d="M6.51581 10.9564C6.87869 11.1659 7.48917 11.3645 8.1197 11.4529C8.1197 11.4529 7.91921 13.0326 8.47455 14.2201C8.47455 14.2201 8.58883 16.901 9.68849 17.0251C10.7882 17.1492 11.131 16.1632 11.8718 14.3333C11.8718 14.3333 11.947 14.3075 11.972 14.3442C11.9971 14.381 12.39 16.4909 13.1839 16.5664C13.9779 16.6418 13.9618 15.4126 13.9929 14.3333C13.9929 14.3333 16.5421 14.3234 17.0814 14.1516C17.0814 14.1516 16.8949 16.1374 18.1049 16.336C19.3148 16.5346 19.2266 14.0186 19.2266 14.0186C19.2266 14.0186 19.7939 14.0186 19.9573 13.9937C19.9573 13.9937 19.9293 16.4085 21.4409 16.3857C22.9526 16.3628 23.524 14.0642 23.5089 10.4649C23.5089 10.4649 27.687 12.7794 22.1296 18.162C22.1296 18.162 20.5628 20.3096 25.3053 21.2976C25.3053 21.2976 28.6774 22.0919 30.3645 18.2384C31.9193 14.6858 30.148 11.9027 30.148 11.9027C30.148 11.9027 29.2268 9.78977 27.7021 9.0441C27.0305 8.71743 27.0124 8.64693 23.5601 8.78594C23.5601 8.78594 20.9106 7.43261 19.0181 7.46835C19.0181 7.46835 16.6122 7.13076 14.9773 7.23601C14.9773 7.23601 15.2109 4.74084 12.1625 3.23658C12.1625 3.23658 10.0935 1.95474 7.38692 2.9824C6.61675 3.27769 5.93367 3.75964 5.40023 4.38412C4.86679 5.00859 4.50003 5.75564 4.33353 6.55686C4.13505 7.47431 3.61379 9.2814 6.51581 10.9564Z" fill="#5A5A5A"/>
<path d="M24.9183 9.89502C24.9183 9.89502 28.6714 14.0454 23.57 18.1103C23.57 18.1103 22.738 19.2969 24.2086 20.1537C25.6791 21.0106 28.8809 18.9861 29.5495 15.2885C30.2181 11.5909 26.5112 9.8831 26.5112 9.8831C26.5112 9.8831 25.1228 9.3787 24.9183 9.89502Z" fill="#5A5A5A"/>
<path d="M8.11967 11.4479C8.11967 11.4479 8.03446 12.3614 8.10563 12.694C8.16979 12.9919 13.0927 13.5876 14.7517 11.5323C14.7517 11.5323 13.1077 10.9127 13.2711 10.6307C13.2721 10.6307 9.497 11.8987 8.11967 11.4479Z" fill="#5A5A5A"/>
<path d="M13.1017 10.7002C13.1017 10.7002 15.7582 13.4417 17.743 11.3049C17.743 11.3049 19.1042 9.62592 16.0047 8.20507C16.0047 8.20507 19.7217 8.49202 19.2797 5.86081C19.2797 5.86081 18.5088 3.81939 15.699 4.53727C15.699 4.53727 18.7985 2.12549 16.4478 0.688755C14.0971 -0.747983 12.1604 2.92776 12.0853 3.20081C12.0853 3.20081 17.7019 5.70989 13.1017 10.7002Z" fill="#5A5A5A"/>
<path d="M13.606 10.1363C13.606 10.1363 14.8089 11.5075 15.9627 11.4271C17.1165 11.3466 17.1656 10.3349 16.9911 9.9248C16.8167 9.51473 14.7437 8.07104 14.7437 8.07104C14.3899 8.96268 13.606 10.1363 13.606 10.1363Z" fill="#5A5A5A"/>
<path d="M14.867 7.54477C14.867 7.54477 16.9551 8.07498 17.8252 7.19626C18.6953 6.31754 17.9906 5.3991 17.5886 5.25413C16.7405 4.94633 14.4911 5.33754 14.4911 5.33754C14.9291 5.97697 14.867 7.54477 14.867 7.54477Z" fill="#5A5A5A"/>
<path d="M14.0761 4.87881C14.0761 4.87881 15.719 3.92562 16.0679 2.73512C16.4107 1.56449 15.0203 1.25966 14.6194 1.40562C13.7713 1.71541 12.5143 3.49073 12.5143 3.49073C12.7799 3.593 14.0761 4.87881 14.0761 4.87881Z" fill="#5A5A5A"/>
</g>
<defs>
<clipPath id="clip0_611_699">
<rect width="31" height="21" fill="white" transform="translate(0 0.357117)"/>
</clipPath>
</defs>
</svg>
