<svg width="31" height="22" viewBox="0 0 31 22" fill="none" xmlns="http://www.w3.org/2000/svg">
<g clip-path="url(#clip0_611_319)">
<path d="M6.21503 10.7827C6.21503 10.7827 3.55861 13.5251 1.5738 11.3883C1.5738 11.3883 0.212512 9.70933 3.31101 8.28749C3.308 8.29047 -0.400972 8.57841 0.0370877 5.9472C0.0370877 5.9472 0.807953 3.90579 3.61675 4.62366C3.61675 4.62366 0.517249 2.21189 2.86894 0.775148C5.22063 -0.66159 7.14528 3.01118 7.21746 3.28423C7.21746 3.28423 1.6139 5.79529 6.21503 10.7827Z" fill="#08A2F1"/>
<path d="M6.59195 3.36961C6.59195 3.36961 5.5374 1.58932 4.39464 1.4384C3.25187 1.28748 2.99726 2.26549 3.08246 2.70436C3.16767 3.14322 4.96702 4.96918 4.96702 4.96918C5.5384 4.01996 6.59195 3.36961 6.59195 3.36961Z" fill="#08A2F1"/>
<path d="M4.5941 5.73571C4.5941 5.73571 2.69952 4.87486 1.67604 5.40011C0.652564 5.92536 1.00943 6.8716 1.33321 7.18734C1.65699 7.50309 4.16606 7.7255 4.16606 7.7255C4.19699 7.04339 4.34162 6.37105 4.5941 5.73571Z" fill="#08A2F1"/>
<path d="M4.31041 8.6181C4.31041 8.6181 2.49402 9.12647 2.17324 10.0588C1.85247 10.9912 2.64438 11.3695 3.03433 11.3714C3.42427 11.3734 5.30081 10.0876 5.30081 10.0876C4.84765 9.6911 4.50635 9.1847 4.31041 8.6181Z" fill="#08A2F1"/>
<path d="M6.51575 10.9564C6.87863 11.1659 7.48911 11.3645 8.11963 11.4529C8.11963 11.4529 7.91915 13.0326 8.47449 14.2201C8.47449 14.2201 8.58877 16.901 9.68843 17.0251C10.7881 17.1492 11.1309 16.1632 11.8717 14.3333C11.8717 14.3333 11.9469 14.3075 11.972 14.3442C11.997 14.381 12.39 16.4909 13.1839 16.5664C13.9778 16.6418 13.9618 15.4126 13.9928 14.3333C13.9928 14.3333 16.542 14.3234 17.0813 14.1516C17.0813 14.1516 16.8949 16.1374 18.1048 16.336C19.3147 16.5346 19.2265 14.0186 19.2265 14.0186C19.2265 14.0186 19.7939 14.0186 19.9573 13.9937C19.9573 13.9937 19.9292 16.4085 21.4409 16.3857C22.9525 16.3628 23.5239 14.0642 23.5089 10.4649C23.5089 10.4649 27.687 12.7794 22.1295 18.162C22.1295 18.162 20.5627 20.3096 25.3052 21.2976C25.3052 21.2976 28.6774 22.0919 30.3645 18.2384C31.9192 14.6858 30.1479 11.9027 30.1479 11.9027C30.1479 11.9027 29.2267 9.78977 27.702 9.0441C27.0304 8.71743 27.0123 8.64693 23.56 8.78594C23.56 8.78594 20.9106 7.43261 19.018 7.46835C19.018 7.46835 16.6122 7.13076 14.9772 7.23601C14.9772 7.23601 15.2108 4.74084 12.1624 3.23658C12.1624 3.23658 10.0934 1.95474 7.38686 2.9824C6.61669 3.27769 5.93361 3.75964 5.40017 4.38412C4.86673 5.00859 4.49997 5.75564 4.33347 6.55686C4.13499 7.47431 3.61373 9.2814 6.51575 10.9564Z" fill="#08A2F1"/>
<path d="M24.9183 9.89502C24.9183 9.89502 28.6714 14.0454 23.57 18.1103C23.57 18.1103 22.738 19.2969 24.2086 20.1537C25.6791 21.0106 28.8809 18.9861 29.5495 15.2885C30.2181 11.5909 26.5111 9.8831 26.5111 9.8831C26.5111 9.8831 25.1228 9.3787 24.9183 9.89502Z" fill="#08A2F1"/>
<path d="M8.11964 11.4479C8.11964 11.4479 8.03443 12.3614 8.1056 12.694C8.16976 12.9919 13.0927 13.5876 14.7517 11.5323C14.7517 11.5323 13.1077 10.9127 13.2711 10.6307C13.2721 10.6307 9.49697 11.8987 8.11964 11.4479Z" fill="#08A2F1"/>
<path d="M13.1017 10.7002C13.1017 10.7002 15.7581 13.4417 17.7429 11.3049C17.7429 11.3049 19.1042 9.62592 16.0047 8.20507C16.0047 8.20507 19.7217 8.49202 19.2796 5.86081C19.2796 5.86081 18.5088 3.81939 15.699 4.53727C15.699 4.53727 18.7985 2.12549 16.4478 0.688755C14.0971 -0.747983 12.1604 2.92776 12.0852 3.20081C12.0852 3.20081 17.7018 5.70989 13.1017 10.7002Z" fill="#08A2F1"/>
<path d="M13.6059 10.1363C13.6059 10.1363 14.8088 11.5075 15.9626 11.4271C17.1164 11.3466 17.1655 10.3349 16.9911 9.9248C16.8167 9.51473 14.7436 8.07104 14.7436 8.07104C14.3898 8.96268 13.6059 10.1363 13.6059 10.1363Z" fill="#08A2F1"/>
<path d="M14.867 7.54477C14.867 7.54477 16.955 8.07498 17.8251 7.19626C18.6952 6.31754 17.9905 5.3991 17.5886 5.25413C16.7405 4.94633 14.4911 5.33754 14.4911 5.33754C14.9291 5.97697 14.867 7.54477 14.867 7.54477Z" fill="#08A2F1"/>
<path d="M14.0761 4.87881C14.0761 4.87881 15.719 3.92562 16.0679 2.73512C16.4107 1.56449 15.0203 1.25966 14.6194 1.40562C13.7713 1.71541 12.5143 3.49073 12.5143 3.49073C12.7799 3.593 14.0761 4.87881 14.0761 4.87881Z" fill="#08A2F1"/>
</g>
<defs>
<clipPath id="clip0_611_319">
<rect width="31" height="21" fill="white" transform="translate(0 0.357117)"/>
</clipPath>
</defs>
</svg>
