<svg width="20" height="24" viewBox="0 0 20 24" fill="none" xmlns="http://www.w3.org/2000/svg">
<path d="M10 23.0049C15.5228 23.0049 20 17.8551 20 11.5025C20 5.14983 15.5228 0 10 0C4.47715 0 0 5.14983 0 11.5025C0 17.8551 4.47715 23.0049 10 23.0049Z" fill="#08A2F1"/>
<path d="M5.5 12.6526C7.433 12.6526 9 10.5927 9 8.0517C9 5.51066 7.433 3.45074 5.5 3.45074C3.567 3.45074 2 5.51066 2 8.0517C2 10.5927 3.567 12.6526 5.5 12.6526Z" fill="white"/>
<path d="M11 16.1034C12.1046 16.1034 13 15.0734 13 13.8029C13 12.5324 12.1046 11.5024 11 11.5024C9.89543 11.5024 9 12.5324 9 13.8029C9 15.0734 9.89543 16.1034 11 16.1034Z" fill="white"/>
</svg>
