<svg width="221" height="71" viewBox="0 0 221 71" fill="none" xmlns="http://www.w3.org/2000/svg">
<path d="M88.3007 47.118H87.3576C86.023 47.118 85.0164 46.4328 84.3417 45.0736L82.8505 41.1997H73.3369C73.3355 40.7864 73.4162 40.3768 73.5744 39.9945C73.7326 39.6122 73.9652 39.2646 74.2589 38.9718C74.5526 38.679 74.9016 38.4467 75.2859 38.2882C75.6701 38.1297 76.0821 38.0481 76.4982 38.0481H81.5905L77.4898 27.556L70.6529 45.0736C69.9781 46.4328 68.9865 47.118 67.6705 47.118H66.7087L74.6641 26.7264C74.8238 26.316 75.0662 25.9424 75.3765 25.6284C75.6867 25.3144 76.0583 25.0667 76.4684 24.9006L77.3333 24.6672H77.5085H77.6799L78.5448 24.9006C78.9571 25.0638 79.3307 25.3104 79.642 25.6247C79.9532 25.939 80.1953 26.3142 80.3529 26.7264L88.3007 47.118Z" fill="black" stroke="black" stroke-width="0.86" stroke-miterlimit="10"/>
<path d="M108.312 46.992C107.824 46.9142 107.305 46.5106 106.754 45.8069L101.535 38.6554L96.3156 45.8069C96.0246 46.2111 95.64 46.5398 95.1943 46.7654C94.7486 46.991 94.2548 47.1068 93.7546 47.1031C93.0873 47.0972 92.4374 46.8906 91.8906 46.5106L99.5925 35.9852L91.9205 25.4449C92.4672 25.0649 93.1171 24.8583 93.7844 24.8524C94.116 24.8745 94.4459 24.9166 94.7723 24.9783C95.2756 25.0561 95.7975 25.4449 96.3455 26.1486L101.565 33.3001L106.784 26.1486C107.075 25.7444 107.461 25.4156 107.907 25.1901C108.353 24.9645 108.848 24.8487 109.348 24.8524C110.016 24.8583 110.666 25.0649 111.212 25.4449L103.544 35.9852L111.171 46.5254C110.625 46.9054 109.975 47.112 109.307 47.1179C108.973 47.0994 108.64 47.0573 108.312 46.992Z" fill="black" stroke="black" stroke-width="0.86" stroke-miterlimit="10"/>
<path d="M114.772 43.8402C113.188 42.2706 112.107 40.2694 111.666 38.0896C111.226 35.9098 111.446 33.6494 112.299 31.5938C113.152 29.5383 114.598 27.78 116.457 26.5412C118.315 25.3023 120.501 24.6386 122.739 24.6338C125.719 24.6436 128.575 25.8252 130.681 27.9203C132.787 30.0154 133.973 32.8537 133.978 35.8147C134.01 37.3058 133.733 38.7874 133.165 40.1679C132.597 41.5484 131.75 42.7983 130.676 43.8402C128.564 45.9295 125.704 47.1025 122.724 47.1025C119.743 47.1025 116.884 45.9295 114.772 43.8402ZM128.428 41.3404C129.531 40.2402 130.282 38.8399 130.585 37.3161C130.888 35.7924 130.73 34.2136 130.13 32.7791C129.531 31.3446 128.517 30.1188 127.217 29.2564C125.916 28.394 124.388 27.9338 122.825 27.9338C121.261 27.9338 119.733 28.394 118.432 29.2564C117.132 30.1188 116.118 31.3446 115.519 32.7791C114.919 34.2136 114.761 35.7924 115.064 37.3161C115.367 38.8399 116.118 40.2402 117.222 41.3404C118.711 42.8109 120.725 43.6362 122.825 43.6362C124.924 43.6362 126.938 42.8109 128.428 41.3404Z" fill="black" stroke="black" stroke-width="0.86" stroke-miterlimit="10"/>
<path d="M137.594 47.1031V24.6487C138.012 24.6477 138.425 24.7287 138.811 24.8869C139.197 25.0451 139.547 25.2775 139.843 25.5707C140.138 25.8639 140.372 26.2121 140.531 26.5954C140.69 26.9787 140.772 27.3894 140.771 27.8041V43.9329H149.319C149.736 43.9319 150.15 44.0129 150.535 44.1711C150.921 44.3294 151.272 44.5617 151.567 44.8549C151.862 45.1481 152.096 45.4964 152.255 45.8797C152.414 46.2629 152.496 46.6737 152.495 47.0883L137.594 47.1031Z" fill="black" stroke="black" stroke-width="0.86" stroke-miterlimit="10"/>
<path d="M154.993 43.8402C153.408 42.2701 152.327 40.2683 151.887 38.0878C151.447 35.9073 151.667 33.6462 152.521 31.5904C153.374 29.5346 154.822 27.7764 156.682 26.5381C158.541 25.2998 160.728 24.6371 162.967 24.6338C165.947 24.6426 168.803 25.824 170.909 27.9195C173.014 30.0149 174.199 32.8538 174.203 35.8147C174.234 37.3054 173.958 38.7867 173.39 40.1671C172.823 41.5475 171.976 42.7976 170.903 43.8402C168.791 45.9297 165.931 47.1028 162.95 47.1028C159.969 47.1028 157.109 45.9297 154.996 43.8402H154.993ZM168.652 41.3404C169.757 40.24 170.509 38.839 170.812 37.3143C171.116 35.7897 170.958 34.2097 170.359 32.7741C169.759 31.3386 168.745 30.1117 167.444 29.2486C166.143 28.3855 164.613 27.9248 163.049 27.9248C161.484 27.9248 159.955 28.3855 158.654 29.2486C157.353 30.1117 156.338 31.3386 155.739 32.7741C155.139 34.2097 154.981 35.7897 155.285 37.3143C155.589 38.839 156.341 40.24 157.446 41.3404C158.935 42.8109 160.949 43.6362 163.049 43.6362C165.148 43.6362 167.163 42.8109 168.652 41.3404Z" fill="black" stroke="black" stroke-width="0.86" stroke-miterlimit="10"/>
<path d="M183.899 27.7893H175.302C175.302 27.3759 175.384 26.9666 175.544 26.5849C175.703 26.2031 175.937 25.8564 176.232 25.5646C176.527 25.2728 176.877 25.0417 177.261 24.8846C177.646 24.7274 178.059 24.6472 178.475 24.6487H195.671C195.677 25.0637 195.596 25.4754 195.434 25.8578C195.272 26.2402 195.031 26.5851 194.728 26.8708C194.438 27.1669 194.09 27.4013 193.705 27.5598C193.321 27.7183 192.908 27.7977 192.492 27.793H187.075V43.9329C187.076 44.3476 186.994 44.7583 186.835 45.1416C186.676 45.5249 186.442 45.8731 186.147 46.1663C185.852 46.4595 185.501 46.6919 185.115 46.8501C184.73 47.0084 184.316 47.0893 183.899 47.0883V27.7893Z" fill="black" stroke="black" stroke-width="0.86" stroke-miterlimit="10"/>
<path d="M207.884 27.7893H199.288C199.29 26.955 199.625 26.1557 200.22 25.5668C200.814 24.9779 201.62 24.6477 202.46 24.6487H219.657C219.662 25.0637 219.582 25.4754 219.419 25.8578C219.257 26.2402 219.017 26.5851 218.714 26.8708C218.423 27.1669 218.075 27.4013 217.691 27.5598C217.306 27.7183 216.893 27.7976 216.477 27.793H211.057V43.9329C211.058 44.3476 210.976 44.7583 210.817 45.1416C210.658 45.5249 210.424 45.8731 210.128 46.1663C209.833 46.4595 209.483 46.6919 209.097 46.8501C208.711 47.0083 208.298 47.0893 207.88 47.0883L207.884 27.7893Z" fill="black" stroke="black" stroke-width="0.86" stroke-miterlimit="10"/>
<path d="M12.1882 20.286C12.6969 20.2816 13.1954 20.4276 13.6203 20.7053C14.0453 20.9831 14.3775 21.3802 14.5747 21.846C14.7719 22.3118 14.8253 22.8254 14.7279 23.3214C14.6306 23.8175 14.387 24.2735 14.0281 24.6317C13.6692 24.9898 13.2112 25.2338 12.7123 25.3327C12.2135 25.4316 11.6963 25.3808 11.2265 25.1869C10.7568 24.993 10.3556 24.6648 10.0742 24.2438C9.79269 23.8229 9.64358 23.3283 9.64578 22.8229C9.64577 22.152 9.91327 21.5084 10.3898 21.033C10.8662 20.5575 11.5129 20.2889 12.1882 20.286Z" fill="black"/>
<path d="M25.2991 1.3054C24.0987 3.89787 20.2702 10.8457 12.9523 11.7123H12.9188C12.71 11.8049 9.76497 13.0456 8.74353 13.5863C8.71013 13.6069 8.67082 13.616 8.63169 13.6122C8.22908 13.5566 5.70902 13.3567 5.35114 16.2824C5.34653 16.3136 5.33367 16.343 5.31386 16.3676C4.86651 16.7713 0.199187 21.1007 1.11998 23.7747C2.07059 26.5782 8.50867 28.53 8.60187 28.5633C8.69506 28.5966 20.1882 31.3409 24.3858 27.3337C24.3962 27.3239 24.4085 27.3162 24.4219 27.3111C24.4354 27.306 24.4497 27.3036 24.4641 27.3041C25.0643 27.2337 32.4231 26.3745 36.9451 21.2933C36.99 21.2455 37.0188 21.1849 37.0274 21.1201C37.0361 21.0553 37.0243 20.9894 36.9935 20.9316C36.9628 20.8737 36.9147 20.8269 36.8559 20.7974C36.7971 20.768 36.7305 20.7575 36.6655 20.7674C34.8015 21.06 30.2721 21.5711 26.4622 20.1378C26.4377 20.1265 26.4169 20.1085 26.4023 20.0859C26.3877 20.0632 26.3799 20.0369 26.3799 20.01C26.3799 19.9831 26.3877 19.9568 26.4023 19.9342C26.4169 19.9115 26.4377 19.8935 26.4622 19.8823C27.726 19.1934 33.083 15.9973 35.9982 9.9309C36.0348 9.85322 36.0448 9.76576 36.0266 9.6819C36.0084 9.59805 35.9631 9.52242 35.8976 9.46656C35.8321 9.4107 35.75 9.3777 35.6638 9.3726C35.5776 9.36751 35.4921 9.39059 35.4204 9.43833C32.9711 11.0012 27.055 14.4159 23.3159 13.3937C23.2932 13.3892 23.272 13.379 23.2544 13.3641C23.2369 13.3491 23.2235 13.3299 23.2156 13.3083C23.2078 13.2866 23.2056 13.2634 23.2095 13.2407C23.2133 13.218 23.223 13.1967 23.2376 13.1789C24.0167 12.153 28.0317 6.54959 26.1901 1.35355C26.1664 1.25692 26.1121 1.17042 26.0351 1.10687C25.9581 1.04332 25.8626 1.00608 25.7626 1.00068C25.6627 0.995282 25.5636 1.022 25.4801 1.07688C25.3967 1.13176 25.3332 1.21189 25.2991 1.3054V1.3054Z" stroke="black" stroke-width="2" stroke-miterlimit="10"/>
<path d="M32.345 15.2676C34.8017 15.2676 38.1456 16.6379 41.6125 18.8674" stroke="black" stroke-width="2" stroke-miterlimit="10"/>
<path d="M43.9984 26.156C49.4635 35.4148 50.813 43.8366 50.6639 44.7514C50.659 44.7731 50.661 44.7959 50.6697 44.8165C50.6783 44.837 50.6933 44.8544 50.7123 44.8662C57.1355 49.7622 53.6947 60.9432 52.7217 63.6912C52.7099 63.7202 52.6887 63.7445 52.6614 63.7602C52.6341 63.7759 52.6023 63.7822 52.5711 63.7779C52.5399 63.7737 52.5109 63.7592 52.4889 63.7368C52.4669 63.7143 52.453 63.6853 52.4495 63.6541C51.8568 55.562 49.128 53.1287 48.5054 52.6732C48.4899 52.6613 48.4718 52.6529 48.4526 52.6486C48.4334 52.6444 48.4135 52.6443 48.3943 52.6486C48.3751 52.6528 48.3571 52.6612 48.3415 52.6731C48.3259 52.6851 48.3131 52.7003 48.3041 52.7176C36.8893 73.7055 18.4176 70.3464 13.109 68.8502C13.0729 68.8433 13.0411 68.8225 13.0205 68.7923C12.9998 68.762 12.9921 68.7249 12.9991 68.6891C13.006 68.6532 13.027 68.6216 13.0574 68.6011C13.0878 68.5806 13.1251 68.5729 13.1612 68.5798C30.7084 70.4908 35.5286 56.236 36.181 53.9509C36.1882 53.9249 36.1874 53.8974 36.1786 53.8719C36.1697 53.8464 36.1533 53.8242 36.1316 53.8082C36.1098 53.7921 36.0836 53.783 36.0565 53.7821C36.0293 53.7811 36.0026 53.7883 35.9797 53.8028C31.5957 56.136 26.4214 53.9509 24.535 52.9917C24.5069 52.9762 24.4851 52.9514 24.4735 52.9216C24.4618 52.8918 24.461 52.8589 24.4712 52.8286C24.4813 52.7983 24.5019 52.7724 24.5292 52.7556C24.5565 52.7387 24.5889 52.7318 24.6208 52.7362C34.4662 54.2361 36.524 45.6402 36.647 45.0847V45.044C36.647 45.044 34.2649 35.3037 27.5062 32.1039C27.4354 32.0709 27.3583 32.0536 27.2801 32.0533C27.202 32.053 27.1247 32.0697 27.0537 32.1021C26.9827 32.1345 26.9197 32.182 26.869 32.2412C26.8184 32.3003 26.7814 32.3697 26.7606 32.4446C26.1529 34.5371 23.4875 41.2256 14.9208 37.9739C14.8714 37.969 14.8259 37.9448 14.7945 37.9066C14.763 37.8684 14.7481 37.8194 14.753 37.7702C14.758 37.7211 14.7824 37.676 14.8208 37.6447C14.8593 37.6135 14.9086 37.5987 14.9581 37.6036C17.0867 37.3221 23.0439 35.937 22.1678 29.2707" stroke="black" stroke-width="2" stroke-miterlimit="10"/>
<path d="M43.9238 26.7596C44.7142 26.7225 50.1904 23.5227 55.7898 29.5409C55.8064 29.5617 55.8299 29.5761 55.8561 29.5816C55.8822 29.5872 55.9095 29.5835 55.9333 29.5713C55.9571 29.559 55.9758 29.539 55.9863 29.5145C55.9969 29.4901 55.9985 29.4627 55.9911 29.4372C55.1448 26.7707 49.8214 18.6452 41.6125 18.8711" stroke="black" stroke-width="2" stroke-miterlimit="10"/>
<path d="M41.2658 18.2512C41.0394 18.2735 40.8243 18.3611 40.6466 18.5033C40.4689 18.6456 40.3361 18.8364 40.2645 19.0527C40.1928 19.269 40.1853 19.5015 40.2428 19.722C40.3004 19.9425 40.4205 20.1415 40.5887 20.295C40.7568 20.4485 40.9658 20.5498 41.1903 20.5867C41.4148 20.6236 41.6451 20.5945 41.8534 20.5029C42.0617 20.4113 42.239 20.2612 42.3639 20.0707C42.4887 19.8802 42.5558 19.6575 42.5569 19.4296C42.5408 19.1021 42.396 18.7942 42.154 18.5734C41.9121 18.3526 41.5927 18.2368 41.2658 18.2512Z" fill="black"/>
<path d="M44.8687 25.8078C44.7048 25.2701 44.0664 25.1505 43.4452 25.521C42.8241 25.8915 42.4532 26.6205 42.5826 27.1582C42.712 27.696 43.3849 27.8155 44.0146 27.445C44.6444 27.0746 45.0412 26.3456 44.8687 25.8078Z" fill="black"/>
</svg>
