<svg width="122" height="40" viewBox="0 0 122 40" fill="none" xmlns="http://www.w3.org/2000/svg">
<path d="M49.0786 26.3984H48.5592C47.8242 26.3984 47.2699 26.021 46.8983 25.2725L46.0771 23.139H40.8377C40.8369 22.9114 40.8813 22.6858 40.9684 22.4753C41.0556 22.2647 41.1837 22.0733 41.3454 21.9121C41.5072 21.7508 41.6994 21.6229 41.911 21.5356C42.1226 21.4483 42.3495 21.4033 42.5787 21.4033H45.3831L43.1248 15.6251L39.3595 25.2725C38.9879 26.021 38.4418 26.3984 37.7171 26.3984H37.1874L41.5686 15.1682C41.6565 14.9422 41.79 14.7364 41.9609 14.5635C42.1318 14.3906 42.3364 14.2542 42.5623 14.1627L43.0386 14.0342H43.1351H43.2295L43.7058 14.1627C43.9329 14.2526 44.1386 14.3884 44.31 14.5615C44.4814 14.7346 44.6148 14.9412 44.7015 15.1682L49.0786 26.3984Z" fill="white" stroke="white" stroke-width="0.86" stroke-miterlimit="10"/>
<path d="M60.0993 26.3289C59.8304 26.286 59.545 26.0637 59.2412 25.6762L56.3669 21.7377L53.4926 25.6762C53.3323 25.8988 53.1205 26.0798 52.8751 26.2041C52.6296 26.3283 52.3577 26.3921 52.0822 26.3901C51.7147 26.3868 51.3568 26.273 51.0557 26.0637L55.2973 20.2671L51.0721 14.4624C51.3732 14.2531 51.7311 14.1393 52.0986 14.136C52.2812 14.1482 52.4629 14.1714 52.6427 14.2054C52.9198 14.2482 53.2073 14.4624 53.5091 14.8499L56.3833 18.7884L59.2576 14.8499C59.4183 14.6273 59.6305 14.4462 59.8763 14.322C60.1221 14.1978 60.3943 14.134 60.6701 14.136C61.0376 14.1393 61.3955 14.2531 61.6966 14.4624L57.4735 20.2671L61.674 26.0719C61.3729 26.2812 61.015 26.395 60.6475 26.3982C60.4634 26.388 60.2802 26.3648 60.0993 26.3289Z" fill="white" stroke="white" stroke-width="0.86" stroke-miterlimit="10"/>
<path d="M63.6573 24.5933C62.7845 23.7289 62.1893 22.6268 61.9468 21.4263C61.7044 20.2259 61.8256 18.981 62.2951 17.8489C62.7647 16.7169 63.5615 15.7486 64.5848 15.0663C65.6082 14.3841 66.8122 14.0185 68.0446 14.0159C69.6861 14.0213 71.2586 14.672 72.4185 15.8258C73.5784 16.9797 74.2313 18.5428 74.2346 20.1735C74.252 20.9947 74.0995 21.8106 73.7867 22.5709C73.4738 23.3312 73.0071 24.0195 72.4156 24.5933C71.2524 25.7439 69.6778 26.3899 68.0364 26.3899C66.395 26.3899 64.8204 25.7439 63.6573 24.5933ZM71.1776 23.2166C71.7854 22.6107 72.1989 21.8395 72.3658 21.0003C72.5327 20.1612 72.4456 19.2917 72.1154 18.5017C71.7852 17.7117 71.2268 17.0366 70.5107 16.5617C69.7946 16.0867 68.9529 15.8333 68.0919 15.8333C67.2308 15.8333 66.3891 16.0867 65.673 16.5617C64.9569 17.0366 64.3985 17.7117 64.0683 18.5017C63.7382 19.2917 63.651 20.1612 63.8179 21.0003C63.9848 21.8395 64.3983 22.6107 65.0061 23.2166C65.8262 24.0264 66.9355 24.481 68.0919 24.481C69.2482 24.481 70.3575 24.0264 71.1776 23.2166Z" fill="white" stroke="white" stroke-width="0.86" stroke-miterlimit="10"/>
<path d="M76.226 26.3902V14.0239C76.4559 14.0234 76.6836 14.068 76.896 14.1551C77.1085 14.2423 77.3016 14.3702 77.4641 14.5317C77.6266 14.6932 77.7555 14.885 77.8432 15.096C77.9309 15.3071 77.9757 15.5333 77.9752 15.7617V24.6442H82.6829C82.9127 24.6437 83.1404 24.6883 83.3529 24.7754C83.5653 24.8626 83.7584 24.9905 83.9209 25.152C84.0835 25.3135 84.2123 25.5053 84.3 25.7163C84.3877 25.9274 84.4326 26.1536 84.432 26.382L76.226 26.3902Z" fill="white" stroke="white" stroke-width="0.86" stroke-miterlimit="10"/>
<path d="M85.8075 24.5933C84.9345 23.7286 84.3392 22.6262 84.0969 21.4253C83.8546 20.2245 83.9761 18.9792 84.4462 17.847C84.9162 16.7149 85.7137 15.7466 86.7377 15.0646C87.7617 14.3827 88.9662 14.0177 90.199 14.0159C91.8404 14.0207 93.413 14.6714 94.5727 15.8254C95.7324 16.9794 96.3847 18.5428 96.3869 20.1735C96.4042 20.9945 96.2519 21.8102 95.9394 22.5704C95.6269 23.3307 95.1608 24.0191 94.5699 24.5933C93.4064 25.7441 91.8315 26.3901 90.1898 26.3901C88.548 26.3901 86.9731 25.7441 85.8096 24.5933H85.8075ZM93.3299 23.2166C93.9384 22.6106 94.3525 21.839 94.5198 20.9994C94.6871 20.1597 94.6002 19.2896 94.27 18.499C93.9398 17.7083 93.3811 17.0327 92.6646 16.5574C91.9481 16.082 91.1058 15.8283 90.2442 15.8283C89.3826 15.8283 88.5403 16.082 87.8237 16.5574C87.1072 17.0327 86.5485 17.7083 86.2183 18.499C85.8881 19.2896 85.8012 20.1597 85.9685 20.9994C86.1359 21.839 86.5499 22.6106 87.1584 23.2166C87.9785 24.0264 89.0879 24.481 90.2442 24.481C91.4005 24.481 92.5098 24.0264 93.3299 23.2166Z" fill="white" stroke="white" stroke-width="0.86" stroke-miterlimit="10"/>
<path d="M101.727 15.7535H96.9926C96.9926 15.5259 97.0378 15.3005 97.1257 15.0902C97.2135 14.88 97.3423 14.689 97.5046 14.5284C97.667 14.3677 97.8596 14.2404 98.0716 14.1538C98.2835 14.0673 98.5105 14.0231 98.7397 14.0239H108.21C108.213 14.2525 108.169 14.4792 108.08 14.6898C107.99 14.9004 107.858 15.0904 107.691 15.2477C107.531 15.4108 107.339 15.5399 107.127 15.6272C106.916 15.7145 106.688 15.7581 106.459 15.7556H103.476V24.6442C103.477 24.8726 103.432 25.0988 103.344 25.3099C103.256 25.521 103.127 25.7127 102.965 25.8742C102.802 26.0357 102.609 26.1637 102.397 26.2508C102.184 26.338 101.957 26.3825 101.727 26.382V15.7535Z" fill="white" stroke="white" stroke-width="0.86" stroke-miterlimit="10"/>
<path d="M114.936 15.7535H110.202C110.203 15.2941 110.388 14.8539 110.715 14.5295C111.043 14.2052 111.487 14.0234 111.949 14.0239H121.42C121.423 14.2525 121.378 14.4792 121.289 14.6898C121.199 14.9004 121.067 15.0904 120.9 15.2477C120.74 15.4108 120.549 15.5399 120.337 15.6272C120.125 15.7144 119.898 15.7581 119.668 15.7556H116.683V24.6442C116.684 24.8726 116.639 25.0988 116.551 25.3099C116.464 25.521 116.335 25.7127 116.172 25.8742C116.01 26.0357 115.817 26.1637 115.604 26.2508C115.392 26.3379 115.164 26.3825 114.934 26.382L114.936 15.7535Z" fill="white" stroke="white" stroke-width="0.86" stroke-miterlimit="10"/>
<path d="M7.1616 11.6211C7.44174 11.6187 7.71628 11.6991 7.95031 11.8521C8.18434 12.0051 8.3673 12.2237 8.47591 12.4803C8.58453 12.7368 8.61391 13.0197 8.5603 13.2928C8.5067 13.566 8.37254 13.8172 8.17488 14.0144C7.97722 14.2117 7.72499 14.346 7.45025 14.4005C7.17552 14.4549 6.89069 14.427 6.63198 14.3202C6.37327 14.2134 6.15237 14.0326 5.99735 13.8008C5.84234 13.569 5.76022 13.2966 5.76143 13.0183C5.76142 12.6488 5.90874 12.2944 6.17115 12.0325C6.43356 11.7707 6.78969 11.6228 7.1616 11.6211Z" fill="white"/>
<path d="M14.3821 1.16819C13.721 2.59593 11.6126 6.42225 7.58244 6.89952H7.56396C7.44899 6.95051 5.82709 7.63379 5.26455 7.93157C5.24616 7.94292 5.22451 7.94794 5.20296 7.94585C4.98123 7.91526 3.59337 7.80511 3.39628 9.41641C3.39374 9.43358 3.38666 9.44977 3.37575 9.46333C3.12938 9.68565 0.558972 12.07 1.06607 13.5426C1.5896 15.0866 5.13521 16.1614 5.18654 16.1798C5.23786 16.1982 11.5674 17.7095 13.8791 15.5026C13.8849 15.4972 13.8916 15.493 13.899 15.4902C13.9064 15.4874 13.9143 15.4861 13.9222 15.4863C14.2528 15.4476 18.3055 14.9744 20.7958 12.176C20.8206 12.1497 20.8364 12.1163 20.8412 12.0806C20.846 12.0449 20.8395 12.0087 20.8225 11.9768C20.8056 11.945 20.7791 11.9191 20.7467 11.9029C20.7143 11.8867 20.6777 11.881 20.6419 11.8864C19.6153 12.0475 17.1209 12.329 15.0227 11.5397C15.0091 11.5335 14.9977 11.5235 14.9897 11.5111C14.9816 11.4986 14.9774 11.4841 14.9774 11.4693C14.9774 11.4545 14.9816 11.44 14.9897 11.4275C14.9977 11.4151 15.0091 11.4051 15.0227 11.3989C15.7187 11.0196 18.6689 9.25936 20.2744 5.91847C20.2945 5.87568 20.3 5.82752 20.29 5.78134C20.28 5.73516 20.2551 5.6935 20.219 5.66274C20.1829 5.63198 20.1377 5.61381 20.0902 5.611C20.0427 5.60819 19.9956 5.62091 19.9561 5.6472C18.6073 6.50792 15.3491 8.38845 13.2899 7.82551C13.2774 7.82306 13.2657 7.81745 13.2561 7.8092C13.2464 7.80096 13.239 7.79037 13.2347 7.77847C13.2304 7.76656 13.2292 7.75374 13.2313 7.74126C13.2334 7.72877 13.2388 7.71705 13.2468 7.70722C13.6759 7.14224 15.887 4.05629 14.8728 1.19471C14.8598 1.14149 14.8298 1.09386 14.7874 1.05886C14.745 1.02386 14.6924 1.00335 14.6374 1.00038C14.5823 0.997402 14.5278 1.01212 14.4818 1.04234C14.4358 1.07256 14.4009 1.11669 14.3821 1.16819V1.16819Z" stroke="white" stroke-width="2" stroke-miterlimit="10"/>
<path d="M18.2624 8.85767C19.6153 8.85767 21.4569 9.61233 23.3663 10.8402" stroke="white" stroke-width="2" stroke-miterlimit="10"/>
<path d="M24.6802 14.854C27.69 19.9531 28.4332 24.5911 28.3511 25.0949C28.3483 25.1069 28.3495 25.1195 28.3542 25.1308C28.359 25.1421 28.3672 25.1517 28.3778 25.1582C31.9151 27.8545 30.0202 34.0122 29.4843 35.5256C29.4778 35.5415 29.4662 35.5549 29.4511 35.5636C29.4361 35.5722 29.4186 35.5757 29.4014 35.5733C29.3842 35.571 29.3683 35.563 29.3562 35.5507C29.344 35.5383 29.3364 35.5223 29.3345 35.5052C29.008 31.0486 27.5052 29.7086 27.1623 29.4577C27.1538 29.4511 27.1438 29.4465 27.1333 29.4441C27.1227 29.4418 27.1117 29.4418 27.1011 29.4441C27.0906 29.4465 27.0806 29.4511 27.0721 29.4576C27.0635 29.4642 27.0564 29.4726 27.0515 29.4822C20.7651 41.0407 10.5922 39.1907 7.66868 38.3667C7.64881 38.363 7.63126 38.3515 7.6199 38.3348C7.60855 38.3182 7.6043 38.2978 7.60812 38.278C7.61193 38.2583 7.62348 38.2408 7.64023 38.2296C7.65698 38.2183 7.67755 38.2141 7.69742 38.2178C17.3611 39.2703 20.0157 31.4198 20.375 30.1613C20.379 30.147 20.3785 30.1319 20.3736 30.1178C20.3688 30.1038 20.3598 30.0916 20.3477 30.0827C20.3357 30.0739 20.3213 30.0689 20.3064 30.0684C20.2915 30.0678 20.2767 30.0718 20.2641 30.0798C17.8497 31.3647 15.0001 30.1613 13.9613 29.6331C13.9458 29.6245 13.9338 29.6109 13.9274 29.5945C13.9209 29.5781 13.9205 29.56 13.9261 29.5433C13.9317 29.5266 13.943 29.5123 13.958 29.503C13.9731 29.4937 13.9909 29.49 14.0085 29.4924C19.4306 30.3184 20.5639 25.5844 20.6316 25.2785V25.2561C20.6316 25.2561 19.3197 19.8919 15.5975 18.1296C15.5586 18.1115 15.5161 18.102 15.4731 18.1018C15.43 18.1016 15.3875 18.1108 15.3483 18.1287C15.3092 18.1465 15.2745 18.1727 15.2467 18.2053C15.2188 18.2378 15.1984 18.2761 15.1869 18.3173C14.8523 19.4697 13.3844 23.1532 8.66646 21.3624C8.63924 21.3597 8.61421 21.3464 8.59688 21.3253C8.57956 21.3043 8.57135 21.2773 8.57407 21.2503C8.5768 21.2232 8.59022 21.1983 8.6114 21.1811C8.63258 21.1639 8.65977 21.1558 8.68699 21.1585C9.85928 21.0035 13.14 20.2406 12.6576 16.5693" stroke="white" stroke-width="2" stroke-miterlimit="10"/>
<path d="M24.6392 15.1865C25.0744 15.1661 28.0903 13.4039 31.174 16.7183C31.1832 16.7297 31.1961 16.7377 31.2105 16.7407C31.2249 16.7438 31.24 16.7417 31.2531 16.735C31.2662 16.7283 31.2765 16.7172 31.2823 16.7037C31.2881 16.6903 31.289 16.6752 31.2849 16.6612C30.8188 15.1927 27.8871 10.7177 23.3663 10.8421" stroke="white" stroke-width="2" stroke-miterlimit="10"/>
<path d="M23.1754 10.5007C23.0507 10.5129 22.9322 10.5612 22.8344 10.6395C22.7365 10.7179 22.6634 10.823 22.6239 10.9421C22.5845 11.0612 22.5803 11.1892 22.612 11.3107C22.6437 11.4321 22.7099 11.5417 22.8025 11.6262C22.8951 11.7108 23.0102 11.7666 23.1338 11.7869C23.2574 11.8072 23.3843 11.7912 23.499 11.7407C23.6137 11.6903 23.7114 11.6076 23.7801 11.5027C23.8489 11.3978 23.8858 11.2751 23.8864 11.1496C23.8776 10.9693 23.7978 10.7997 23.6646 10.6781C23.5313 10.5565 23.3554 10.4927 23.1754 10.5007Z" fill="white"/>
<path d="M25.1595 14.6624C25.0692 14.3662 24.7177 14.3004 24.3756 14.5044C24.0335 14.7084 23.8292 15.1099 23.9005 15.4061C23.9718 15.7022 24.3423 15.768 24.6892 15.564C25.036 15.36 25.2545 14.9585 25.1595 14.6624Z" fill="white"/>
</svg>
