<svg width="27" height="22" viewBox="0 0 27 22" fill="none" xmlns="http://www.w3.org/2000/svg">
<g clip-path="url(#clip0_611_694)">
<path d="M0.11136 11.6938C0.11136 11.6938 -0.114038 14.1688 0.0742358 15.0727C0.243947 15.8798 13.2666 17.494 17.6553 11.9225C17.6553 11.9225 13.3064 10.2464 13.7386 9.48242C13.7386 9.48242 3.7522 12.9179 0.11136 11.6938Z" fill="#08A2F1"/>
<path d="M27 0.809077C27.0265 0.338286 24.0618 0.540053 18.1803 0.357117C18.1653 0.357065 18.1506 0.360679 18.1373 0.367652C18.124 0.374626 18.1126 0.384752 18.104 0.397169C18.0954 0.409586 18.0899 0.423925 18.0879 0.438967C18.086 0.454008 18.0876 0.469306 18.0928 0.483558C18.5993 1.88786 22.5397 14.5212 0.111332 13.7491C0.0991424 13.7488 0.0870029 13.7508 0.0756071 13.7552C0.0642113 13.7597 0.0537826 13.7663 0.0449171 13.7748C0.0360515 13.7833 0.028923 13.7935 0.0239388 13.8048C0.0189546 13.816 0.0162124 13.8282 0.0158691 13.8406C0.0158691 14.3921 0.0291278 17.2464 0.999664 19.0785C1.00083 19.0874 1.00083 19.0965 0.999664 19.1054C1.10839 19.751 1.0474 19.7779 1.14816 20.472C1.15086 20.4885 1.15761 20.5041 1.16781 20.5173C1.17801 20.5304 1.19132 20.5408 1.2065 20.5474C1.71298 20.7276 5.95311 22.1615 9.55417 20.7007C9.75305 20.62 9.86973 19.6596 10.0607 19.5009C10.0961 19.4824 10.136 19.4749 10.1756 19.4792C10.2152 19.4835 10.2526 19.4994 10.2834 19.5251C10.2834 19.5251 10.4664 20.5796 10.5486 20.62C10.8137 20.7653 14.9452 20.5662 15.5497 20.4424C15.5699 20.4392 15.5882 20.4287 15.6014 20.4129C15.6145 20.3971 15.6216 20.377 15.6213 20.3563C15.6213 20.1304 15.6611 19.8183 15.6638 19.6138C15.663 19.602 15.6647 19.5901 15.6688 19.579C15.673 19.5678 15.6794 19.5577 15.6877 19.5493C15.696 19.5409 15.7059 19.5344 15.7169 19.5302C15.7279 19.526 15.7396 19.5243 15.7513 19.5251C18.0779 19.5567 20.4044 19.457 22.7201 19.2264C25.1659 13.378 26.6132 7.15002 27 0.809077Z" fill="#08A2F1"/>
</g>
<defs>
<clipPath id="clip0_611_694">
<rect width="27" height="21" fill="white" transform="translate(0 0.357117)"/>
</clipPath>
</defs>
</svg>
