<svg width="296" height="203" viewBox="0 0 296 203" fill="none" xmlns="http://www.w3.org/2000/svg">
<g clip-path="url(#clip0_412_929)">
<path d="M59.3435 100.78C59.3435 100.78 33.9789 127.29 15.0273 106.635C15.0273 106.635 2.02911 90.4046 31.6147 76.6601C31.586 76.6889 -3.82868 79.4723 0.354088 54.0373C0.354088 54.0373 7.71461 34.3036 34.5341 41.2431C34.5341 41.2431 4.93886 17.9292 27.3937 4.04078C49.8485 -9.84768 68.2259 25.6557 68.9151 28.2952C68.9151 28.2952 15.4101 52.5688 59.3435 100.78Z" fill="#4E4E9C"/>
<path d="M62.9423 29.1206C62.9423 29.1206 52.873 11.9112 41.9615 10.4523C31.0499 8.99336 28.6187 18.4475 29.4323 22.6899C30.2459 26.9322 47.4268 44.5831 47.4268 44.5831C52.8826 35.4074 62.9423 29.1206 62.9423 29.1206Z" fill="#9A9ACC"/>
<path d="M43.8664 51.993C43.8664 51.993 25.7762 43.6714 16.0036 48.7488C6.2311 53.8262 9.63857 62.9732 12.7302 66.0254C15.8218 69.0776 39.7794 71.2276 39.7794 71.2276C40.0746 64.6339 41.4556 58.1346 43.8664 51.993Z" fill="#9A9ACC"/>
<path d="M41.1575 79.8562C41.1575 79.8562 23.8138 84.7704 20.7509 93.7831C17.688 102.796 25.2496 106.453 28.9729 106.472C32.6962 106.491 50.6141 94.0614 50.6141 94.0614C46.2872 90.2285 43.0283 85.3333 41.1575 79.8562Z" fill="#9A9ACC"/>
<path d="M62.2151 102.46C65.68 104.485 71.509 106.405 77.5295 107.259C77.5295 107.259 75.6152 122.529 80.9179 134.009C80.9179 134.009 82.009 159.924 92.509 161.123C103.009 162.323 106.282 152.792 113.356 135.103C113.356 135.103 114.074 134.853 114.313 135.209C114.552 135.564 118.304 155.96 125.885 156.689C133.466 157.419 133.312 145.536 133.609 135.103C133.609 135.103 157.95 135.007 163.099 133.346C163.099 133.346 161.319 152.543 172.872 154.462C184.425 156.382 183.582 132.06 183.582 132.06C183.582 132.06 189 132.06 190.56 131.82C190.56 131.82 190.292 155.163 204.726 154.942C219.16 154.721 224.615 132.502 224.472 97.7087C224.472 97.7087 264.366 120.082 211.301 172.113C211.301 172.113 196.341 192.874 241.624 202.424C241.624 202.424 273.823 210.103 289.932 172.852C304.777 138.51 287.864 111.607 287.864 111.607C287.864 111.607 279.068 91.182 264.51 83.9738C258.097 80.816 257.924 80.1346 224.96 81.4783C224.96 81.4783 199.662 68.3961 181.591 68.7416C181.591 68.7416 158.62 65.4782 143.008 66.4957C143.008 66.4957 145.239 42.3756 116.132 27.8345C116.132 27.8345 96.3759 15.4433 70.5327 25.3774C63.1789 28.2319 56.6566 32.8907 51.5631 38.9273C46.4696 44.9639 42.9676 52.1854 41.3778 59.9305C39.4827 68.7992 34.5054 86.2678 62.2151 102.46Z" fill="#FBDFE1"/>
<path d="M238.886 92.1994C238.886 92.1994 274.722 132.32 226.013 171.614C226.013 171.614 218.068 183.084 232.11 191.367C246.151 199.65 276.723 180.08 283.107 144.336C289.491 108.593 254.096 92.0842 254.096 92.0842C254.096 92.0842 240.839 87.2084 238.886 92.1994Z" fill="#9A9ACC"/>
<path d="M77.5296 107.211C77.5296 107.211 76.716 116.041 77.3956 119.257C78.0082 122.136 125.014 127.895 140.855 108.027C140.855 108.027 125.158 102.038 126.718 99.3116C126.727 99.3116 90.6809 111.568 77.5296 107.211Z" fill="#9A9ACC"/>
<path d="M59.3435 100.78C59.3435 100.78 33.9789 127.29 15.0273 106.635C15.0273 106.635 2.02911 90.4046 31.6147 76.6601C31.586 76.6889 -3.82868 79.4723 0.354088 54.0373C0.354088 54.0373 7.71461 34.3036 34.5341 41.2431C34.5341 41.2431 4.93886 17.9292 27.3937 4.04078C49.8485 -9.84768 68.2259 25.6557 68.9151 28.2952C68.9151 28.2952 15.4101 52.5688 59.3435 100.78Z" fill="#4E4E9C"/>
<path d="M62.9423 29.1206C62.9423 29.1206 52.873 11.9112 41.9615 10.4523C31.0499 8.99336 28.6187 18.4475 29.4323 22.6899C30.2459 26.9322 47.4268 44.5831 47.4268 44.5831C52.8826 35.4074 62.9423 29.1206 62.9423 29.1206Z" fill="#9A9ACC"/>
<path d="M43.8664 51.993C43.8664 51.993 25.7762 43.6714 16.0036 48.7488C6.2311 53.8262 9.63857 62.9732 12.7302 66.0254C15.8218 69.0776 39.7794 71.2276 39.7794 71.2276C40.0746 64.6339 41.4556 58.1346 43.8664 51.993Z" fill="#9A9ACC"/>
<path d="M41.1575 79.8562C41.1575 79.8562 23.8138 84.7704 20.7509 93.7831C17.688 102.796 25.2496 106.453 28.9729 106.472C32.6962 106.491 50.6141 94.0614 50.6141 94.0614C46.2872 90.2285 43.0283 85.3333 41.1575 79.8562Z" fill="#9A9ACC"/>
<path d="M62.2151 102.46C65.68 104.485 71.509 106.405 77.5295 107.259C77.5295 107.259 75.6152 122.529 80.9179 134.009C80.9179 134.009 82.009 159.924 92.509 161.123C103.009 162.323 106.282 152.792 113.356 135.103C113.356 135.103 114.074 134.853 114.313 135.209C114.552 135.564 118.304 155.96 125.885 156.689C133.466 157.419 133.312 145.536 133.609 135.103C133.609 135.103 157.95 135.007 163.099 133.346C163.099 133.346 161.319 152.543 172.872 154.462C184.425 156.382 183.582 132.06 183.582 132.06C183.582 132.06 189 132.06 190.56 131.82C190.56 131.82 190.292 155.163 204.726 154.942C219.16 154.721 224.615 132.502 224.472 97.7087C224.472 97.7087 264.366 120.082 211.301 172.113C211.301 172.113 196.341 192.874 241.624 202.424C241.624 202.424 273.823 210.103 289.932 172.852C304.777 138.51 287.864 111.607 287.864 111.607C287.864 111.607 279.068 91.182 264.51 83.9738C258.097 80.816 257.924 80.1346 224.96 81.4783C224.96 81.4783 199.662 68.3961 181.591 68.7416C181.591 68.7416 158.62 65.4782 143.008 66.4957C143.008 66.4957 145.239 42.3756 116.132 27.8345C116.132 27.8345 96.3759 15.4433 70.5327 25.3774C63.1789 28.2319 56.6566 32.8907 51.5631 38.9273C46.4696 44.9639 42.9676 52.1854 41.3778 59.9305C39.4827 68.7992 34.5054 86.2678 62.2151 102.46Z" fill="#CFC6E3"/>
<path d="M238.886 92.1994C238.886 92.1994 274.722 132.32 226.013 171.614C226.013 171.614 218.068 183.084 232.11 191.367C246.151 199.65 276.723 180.08 283.107 144.336C289.491 108.593 254.096 92.0842 254.096 92.0842C254.096 92.0842 240.839 87.2084 238.886 92.1994Z" fill="#9A9ACC"/>
<path d="M77.5296 107.211C77.5296 107.211 76.716 116.041 77.3956 119.257C78.0082 122.136 125.014 127.895 140.855 108.027C140.855 108.027 125.158 102.038 126.718 99.3116C126.727 99.3116 90.6809 111.568 77.5296 107.211Z" fill="#9A9ACC"/>
<g clip-path="url(#clip1_412_929)">
<path d="M77.42 107.14C77.42 107.14 76.57 116.34 77.28 119.7C77.92 122.7 127.03 128.7 143.58 107.99C143.58 107.99 127.18 101.76 128.81 98.92C128.81 98.92 91.15 111.69 77.42 107.14Z" fill="#E62A3E"/>
<path d="M178.82 66.68C178.92 64.93 167.74 65.68 145.56 65C145.504 64.9998 145.448 65.0132 145.398 65.0392C145.348 65.0651 145.305 65.1027 145.272 65.1489C145.24 65.195 145.219 65.2483 145.212 65.3042C145.204 65.3602 145.211 65.417 145.23 65.47C147.14 70.69 162 117.65 77.4201 114.78C77.3741 114.779 77.3283 114.786 77.2853 114.803C77.2424 114.819 77.203 114.844 77.1696 114.875C77.1362 114.907 77.1093 114.945 77.0905 114.987C77.0717 115.029 77.0614 115.074 77.0601 115.12C77.0601 117.17 77.1101 127.78 80.7701 134.59C80.7745 134.623 80.7745 134.657 80.7701 134.69C81.1801 137.09 80.9501 137.19 81.3301 139.77C81.3402 139.831 81.3657 139.889 81.4042 139.938C81.4426 139.987 81.4928 140.026 81.5501 140.05C83.4601 140.72 99.4501 146.05 113.03 140.62C113.78 140.32 114.22 136.75 114.94 136.16C115.074 136.092 115.224 136.064 115.374 136.08C115.523 136.096 115.664 136.155 115.78 136.25C115.78 136.25 116.47 140.17 116.78 140.32C117.78 140.86 133.36 140.12 135.64 139.66C135.716 139.648 135.785 139.609 135.835 139.55C135.884 139.492 135.911 139.417 135.91 139.34C135.91 138.5 136.06 137.34 136.07 136.58C136.067 136.536 136.074 136.492 136.089 136.45C136.105 136.409 136.129 136.371 136.16 136.34C136.191 136.309 136.229 136.285 136.27 136.269C136.312 136.254 136.356 136.247 136.4 136.25C145.174 136.367 153.947 135.997 162.68 135.14C171.904 113.4 177.362 90.2502 178.82 66.68Z" fill="#E83C41"/>
</g>
<path d="M125.1 99.9835C125.1 99.9835 150.465 126.484 169.416 105.829C169.416 105.829 182.414 89.5983 152.819 75.8634C152.819 75.8634 188.311 78.6373 184.09 53.2023C184.09 53.2023 176.729 33.4686 149.9 40.408C149.9 40.408 179.495 17.0942 157.05 3.20574C134.605 -10.6827 116.112 24.8495 115.395 27.489C115.395 27.489 169.024 51.7434 125.1 99.9835Z" fill="#4E4E9C"/>
<path d="M129.915 94.5317C129.915 94.5317 141.4 107.787 152.417 107.009C163.434 106.232 163.903 96.4513 162.238 92.4873C160.572 88.5233 140.778 74.5676 140.778 74.5676C137.4 83.1867 129.915 94.5317 129.915 94.5317Z" fill="#9A9ACC"/>
<path d="M141.956 69.4807C141.956 69.4807 161.893 74.6061 170.201 66.1118C178.509 57.6175 171.78 48.7392 167.942 47.3379C159.845 44.3625 138.366 48.1441 138.366 48.1441C142.549 54.3253 141.956 69.4807 141.956 69.4807Z" fill="#9A9ACC"/>
<path d="M135.361 43.7098C135.361 43.7098 151.048 34.4956 154.379 22.9875C157.653 11.6713 144.377 8.72469 140.548 10.1356C132.451 13.1302 120.448 30.2916 120.448 30.2916C122.985 31.2803 135.361 43.7098 135.361 43.7098Z" fill="#9A9ACC"/>
</g>
<g clip-path="url(#clip2_412_929)">
<path d="M79.7 54.4236H52.46" stroke="#1D1D1B" stroke-width="2.93" stroke-miterlimit="10" stroke-linecap="round"/>
<path d="M53.54 55.2621C53.54 58.6261 56.83 61.3563 60.88 61.3563C64.93 61.3563 68.21 58.6261 68.21 55.2621" fill="#1D1D1B"/>
<path d="M124.98 54.4236H97.74" stroke="#1D1D1B" stroke-width="2.93" stroke-miterlimit="10" stroke-linecap="round"/>
<path d="M99.4299 55.2621C99.4299 58.6261 102.58 61.3563 106.43 61.3563C110.28 61.3563 113.43 58.6261 113.43 55.2621" fill="#1D1D1B"/>
<path d="M88.8699 92.1099C92.8574 92.1099 96.0899 87.3035 96.0899 81.3744C96.0899 75.4454 92.8574 70.6389 88.8699 70.6389C84.8824 70.6389 81.6499 75.4454 81.6499 81.3744C81.6499 87.3035 84.8824 92.1099 88.8699 92.1099Z" fill="#1D1D1B"/>
</g>
<defs>
<clipPath id="clip0_412_929">
<rect width="296" height="203" fill="white"/>
</clipPath>
<clipPath id="clip1_412_929">
<rect width="101.82" height="78.06" fill="white" transform="translate(77 65)"/>
</clipPath>
<clipPath id="clip2_412_929">
<rect width="75.44" height="39.11" fill="white" transform="translate(51 53)"/>
</clipPath>
</defs>
</svg>
