<svg width="384" height="263" viewBox="0 0 384 263" fill="none" xmlns="http://www.w3.org/2000/svg">
<g clip-path="url(#clip0_173_167)">
<path d="M77.3503 130.31C77.3503 130.31 44.549 164.562 20.0408 137.875C20.0408 137.875 3.23172 116.905 41.4916 99.147C41.4545 99.1842 -4.34352 102.78 1.06559 69.9182C1.06559 69.9182 10.5842 44.422 45.2669 53.3878C45.2669 53.3878 6.99459 23.2661 36.033 5.32201C65.0714 -12.6221 88.8369 33.2488 89.7281 36.659C89.7281 36.659 20.5359 68.0208 77.3503 130.31Z" fill="#EB566E"/>
<path d="M82.0043 37.7255C82.0043 37.7255 68.9828 15.4907 54.8721 13.6058C40.7613 11.7209 37.6174 23.9357 38.6695 29.4169C39.7216 34.8981 61.9398 57.7033 61.9398 57.7033C68.9952 45.8481 82.0043 37.7255 82.0043 37.7255Z" fill="#F8C7CB"/>
<path d="M57.3353 67.2768C57.3353 67.2768 33.9411 56.5252 21.3034 63.0853C8.66559 69.6453 13.0721 81.4634 17.0701 85.4069C21.0682 89.3503 52.0499 92.1281 52.0499 92.1281C52.4317 83.609 54.2176 75.2119 57.3353 67.2768Z" fill="#F8C7CB"/>
<path d="M53.8323 103.277C53.8323 103.277 31.4037 109.626 27.4428 121.27C23.4819 132.915 33.2604 137.639 38.0753 137.664C42.8903 137.689 66.0617 121.63 66.0617 121.63C60.4661 116.678 56.2518 110.353 53.8323 103.277Z" fill="#F8C7CB"/>
<path d="M81.0637 132.481C85.5444 135.097 93.0825 137.577 100.868 138.681C100.868 138.681 98.3926 158.411 105.25 173.242C105.25 173.242 106.661 206.725 120.24 208.275C133.818 209.825 138.051 197.511 147.198 174.656C147.198 174.656 148.127 174.333 148.436 174.792C148.746 175.251 153.598 201.603 163.401 202.545C173.204 203.488 173.006 188.136 173.39 174.656C173.39 174.656 204.867 174.532 211.526 172.387C211.526 172.387 209.224 197.188 224.164 199.668C239.104 202.149 238.015 170.725 238.015 170.725C238.015 170.725 245.021 170.725 247.038 170.415C247.038 170.415 246.692 200.574 265.357 200.289C284.023 200.003 291.079 171.295 290.893 126.342C290.893 126.342 342.484 155.249 273.861 222.474C273.861 222.474 254.514 249.297 313.074 261.636C313.074 261.636 354.713 271.556 375.545 223.429C394.743 179.058 372.871 144.299 372.871 144.299C372.871 144.299 361.496 117.91 342.669 108.596C334.376 104.517 334.153 103.636 291.524 105.372C291.524 105.372 258.809 88.4699 235.44 88.9163C235.44 88.9163 205.733 84.7 185.545 86.0145C185.545 86.0145 188.429 54.8511 150.788 36.0638C150.788 36.0638 125.24 20.0542 91.82 32.8891C82.31 36.5772 73.8754 42.5965 67.2886 50.3959C60.7017 58.1953 56.173 67.5255 54.1171 77.5323C51.6663 88.9907 45.2298 111.56 81.0637 132.481Z" fill="#FBDFE1"/>
<path d="M309.534 119.224C309.534 119.224 355.876 171.06 292.886 221.829C292.886 221.829 282.612 236.648 300.77 247.35C318.929 258.052 358.463 232.766 366.719 186.586C374.975 140.405 329.202 119.075 329.202 119.075C329.202 119.075 312.059 112.776 309.534 119.224Z" fill="#F8C7CB"/>
<path d="M100.868 138.619C100.868 138.619 99.8161 150.028 100.695 154.182C101.487 157.902 162.275 165.343 182.76 139.673C182.76 139.673 162.46 131.935 164.478 128.413C164.49 128.413 117.875 144.249 100.868 138.619Z" fill="#F8C7CB"/>
<path d="M76.0189 91.0691C75.9384 88.0633 77.0529 85.1484 79.1174 82.9656C81.1819 80.7828 84.0272 79.5107 87.0279 79.429C88.5167 79.4648 89.9838 79.7945 91.3452 80.3992C92.7066 81.004 93.9355 81.8718 94.9616 82.9531C95.9876 84.0344 96.7905 85.3079 97.3244 86.7006C97.8583 88.0933 98.1126 89.5778 98.0727 91.0691" stroke="#1D1D1B" stroke-width="1.94" stroke-miterlimit="10" stroke-linecap="round"/>
<path d="M101.678 99.7451C101.623 101.661 101.952 103.568 102.646 105.354C103.339 107.14 104.383 108.769 105.717 110.144C107.05 111.518 108.644 112.611 110.407 113.357C112.169 114.103 114.063 114.488 115.976 114.488C117.889 114.488 119.783 114.103 121.545 113.357C123.307 112.611 124.902 111.518 126.235 110.144C127.568 108.769 128.612 107.14 129.306 105.354C129.999 103.568 130.328 101.661 130.273 99.7451" fill="#1D1D1B"/>
<path d="M147.487 97.1411C154.454 97.1411 160.101 91.4838 160.101 84.5051C160.101 77.5263 154.454 71.869 147.487 71.869C140.521 71.869 134.873 77.5263 134.873 84.5051C134.873 91.4838 140.521 97.1411 147.487 97.1411Z" fill="#1D1D1B"/>
<path d="M142.923 85.2131C145.437 85.2131 147.475 83.1715 147.475 80.653C147.475 78.1346 145.437 76.093 142.923 76.093C140.409 76.093 138.371 78.1346 138.371 80.653C138.371 83.1715 140.409 85.2131 142.923 85.2131Z" fill="white"/>
<path d="M149.524 89.3171C150.933 89.3171 152.075 88.1727 152.075 86.7611C152.075 85.3494 150.933 84.205 149.524 84.205C148.114 84.205 146.972 85.3494 146.972 86.7611C146.972 88.1727 148.114 89.3171 149.524 89.3171Z" fill="white"/>
<path d="M100.731 139.002C100.731 139.002 99.6764 150.383 100.557 154.539C101.351 158.25 162.265 165.672 182.793 140.054C182.793 140.054 162.451 132.347 164.473 128.834C164.473 128.834 117.761 144.631 100.731 139.002Z" fill="#F2C95C"/>
<path d="M226.503 88.9531C226.627 86.7884 212.76 87.7161 185.249 86.875C185.179 86.8747 185.11 86.8914 185.047 86.9234C184.985 86.9555 184.932 87.0021 184.892 87.0591C184.852 87.1162 184.826 87.1822 184.817 87.2513C184.807 87.3205 184.815 87.3908 184.839 87.4564C187.208 93.9135 205.64 152.003 100.731 148.453C100.674 148.451 100.617 148.461 100.564 148.481C100.51 148.501 100.462 148.532 100.42 148.571C100.379 148.61 100.345 148.657 100.322 148.709C100.299 148.761 100.286 148.817 100.284 148.873C100.284 151.409 100.346 164.534 104.886 172.958C104.891 172.999 104.891 173.04 104.886 173.082C105.394 176.05 105.109 176.174 105.581 179.366C105.593 179.441 105.625 179.513 105.672 179.574C105.72 179.634 105.782 179.682 105.853 179.712C108.222 180.541 128.056 187.134 144.9 180.417C145.83 180.046 146.376 175.63 147.269 174.9C147.435 174.815 147.621 174.781 147.806 174.8C147.992 174.82 148.167 174.893 148.311 175.011C148.311 175.011 149.167 179.86 149.551 180.046C150.791 180.714 170.116 179.798 172.944 179.229C173.038 179.215 173.124 179.166 173.186 179.094C173.247 179.021 173.28 178.929 173.279 178.834C173.279 177.795 173.465 176.36 173.478 175.419C173.474 175.365 173.482 175.31 173.501 175.259C173.521 175.208 173.551 175.161 173.589 175.123C173.628 175.084 173.675 175.054 173.726 175.035C173.777 175.016 173.832 175.008 173.887 175.011C184.77 175.157 195.652 174.698 206.483 173.638C217.924 146.746 224.694 118.11 226.503 88.9531Z" fill="#FFE05D"/>
<path d="M162.386 129.281C162.386 129.281 195.187 163.52 219.695 136.833C219.695 136.833 236.504 115.863 198.232 98.1178C198.232 98.1178 244.129 101.702 238.671 68.8393C238.671 68.8393 229.152 43.3431 194.457 52.3089C194.457 52.3089 232.729 22.1872 203.703 4.24315C174.677 -13.7009 150.763 32.2071 149.835 35.6174C149.835 35.6174 219.188 66.9544 162.386 129.281Z" fill="#EB566E"/>
<path d="M168.612 122.237C168.612 122.237 183.465 139.363 197.712 138.359C211.959 137.354 212.566 124.718 210.412 119.596C208.258 114.475 182.661 96.4436 182.661 96.4436C178.292 107.58 168.612 122.237 168.612 122.237Z" fill="#F8C7CB"/>
<path d="M184.183 89.8712C184.183 89.8712 209.966 96.4933 220.71 85.5185C231.454 74.5437 222.753 63.0729 217.789 61.2624C207.318 57.4181 179.542 62.304 179.542 62.304C184.951 70.2902 184.183 89.8712 184.183 89.8712Z" fill="#F8C7CB"/>
<path d="M175.655 56.5748C175.655 56.5748 195.942 44.67 200.25 29.8013C204.483 15.1807 187.315 11.3736 182.364 13.1966C171.892 17.0656 156.37 39.2384 156.37 39.2384C159.65 40.5157 175.655 56.5748 175.655 56.5748Z" fill="#F8C7CB"/>
</g>
<defs>
<clipPath id="clip0_173_167">
<rect width="382.785" height="262.278" fill="white" transform="translate(0.607605 0.101257)"/>
</clipPath>
</defs>
</svg>
