<svg width="87" height="60" viewBox="0 0 87 60" fill="none" xmlns="http://www.w3.org/2000/svg">
<g clip-path="url(#clip0_277_178)">
<path d="M17.4422 29.7872C17.4422 29.7872 9.98706 37.6227 4.41681 31.5177C4.41681 31.5177 0.59641 26.7206 9.29219 22.6581C9.28375 22.6667 -1.1253 23.4894 0.10409 15.9716C0.10409 15.9716 2.26749 10.139 10.1502 12.1901C10.1502 12.1901 1.45164 5.29928 8.05154 1.19431C14.6514 -2.91065 20.0529 7.58297 20.2555 8.36311C20.2555 8.36311 4.52934 15.5376 17.4422 29.7872Z" fill="#FFE660"/>
<path d="M18.5 8.60706C18.5 8.60706 15.5404 3.52054 12.3333 3.08933C9.12622 2.65812 8.41165 5.45245 8.65078 6.70635C8.88991 7.96025 13.9397 13.1773 13.9397 13.1773C15.5433 10.4652 18.5 8.60706 18.5 8.60706Z" fill="#FEF4A1"/>
<path d="M12.8932 15.3673C12.8932 15.3673 7.5761 12.9078 4.70377 14.4085C1.83143 15.9092 2.83295 18.6127 3.74163 19.5149C4.65031 20.417 11.6919 21.0525 11.6919 21.0525C11.7787 19.1036 12.1846 17.1826 12.8932 15.3673Z" fill="#FEF4A1"/>
<path d="M12.097 23.6028C12.097 23.6028 6.99938 25.0553 6.09914 27.7192C5.19889 30.383 7.42137 31.4638 8.51573 31.4695C9.61008 31.4752 14.8765 27.8014 14.8765 27.8014C13.6047 26.6685 12.6469 25.2217 12.097 23.6028Z" fill="#FEF4A1"/>
<path d="M18.2862 30.2837C19.3046 30.8823 21.0179 31.4497 22.7874 31.7021C22.7874 31.7021 22.2248 36.2156 23.7833 39.6085C23.7833 39.6085 24.104 47.2681 27.1902 47.6227C30.2763 47.9773 31.2384 45.1603 33.3174 39.9319C33.3174 39.9319 33.5284 39.8582 33.5988 39.9631C33.6691 40.0681 34.7719 46.0965 37 46.3121C39.2281 46.5277 39.1831 43.0156 39.2703 39.9319C39.2703 39.9319 46.4244 39.9036 47.9379 39.4128C47.9379 39.4128 47.4147 45.0865 50.8103 45.6539C54.2059 46.2213 53.9583 39.0326 53.9583 39.0326C53.9583 39.0326 55.5506 39.0326 56.0092 38.9617C56.0092 38.9617 55.9304 45.861 60.1728 45.7958C64.4152 45.7305 66.0187 39.1631 65.9765 28.8794C65.9765 28.8794 77.7022 35.4922 62.1055 50.8709C62.1055 50.8709 57.7084 57.0071 71.0179 59.8298C71.0179 59.8298 80.4817 62.0993 85.2164 51.0894C89.5798 40.939 84.6087 32.9872 84.6087 32.9872C84.6087 32.9872 82.0234 26.9504 77.7444 24.8199C75.8595 23.8865 75.8089 23.6851 66.12 24.0823C66.12 24.0823 58.6846 20.2156 53.3731 20.3177C53.3731 20.3177 46.6213 19.3532 42.0329 19.6539C42.0329 19.6539 42.6884 12.5248 34.1333 8.22696C34.1333 8.22696 28.3267 4.56455 20.7309 7.50072C18.5695 8.34442 16.6524 9.72142 15.1554 11.5056C13.6583 13.2899 12.629 15.4243 12.1617 17.7135C11.6047 20.3348 10.1418 25.4979 18.2862 30.2837Z" fill="#FFF8CA"/>
<path d="M70.2133 27.2511C70.2133 27.2511 80.7461 39.1092 66.4295 50.7234C66.4295 50.7234 64.0945 54.1135 68.2215 56.5617C72.3486 59.0099 81.3341 53.2255 83.2105 42.661C85.087 32.0965 74.6836 27.217 74.6836 27.217C74.6836 27.217 70.7872 25.7759 70.2133 27.2511Z" fill="#FEF4A1"/>
<path d="M22.7874 31.688C22.7874 31.688 22.5483 34.2979 22.748 35.2482C22.928 36.0993 36.744 37.8014 41.3999 31.9291C41.3999 31.9291 36.7861 30.1589 37.2447 29.3532C37.2475 29.3532 26.6528 32.9759 22.7874 31.688Z" fill="#FEF4A1"/>
<path d="M36.7693 29.5518C36.7693 29.5518 44.2244 37.3844 49.7947 31.2794C49.7947 31.2794 53.6151 26.4823 44.9165 22.4227C44.9165 22.4227 55.348 23.2425 54.1074 15.7248C54.1074 15.7248 51.944 9.89218 44.0584 11.9432C44.0584 11.9432 52.757 5.05246 46.1599 0.947496C39.5628 -3.15747 34.1276 7.34466 33.9166 8.1248C33.9166 8.1248 49.6793 15.2936 36.7693 29.5518Z" fill="#FFE660"/>
<path d="M38.1844 27.9404C38.1844 27.9404 41.5603 31.8581 44.7983 31.6283C48.0364 31.3985 48.1742 28.5078 47.6847 27.3361C47.1952 26.1645 41.3774 22.0397 41.3774 22.0397C40.3843 24.5872 38.1844 27.9404 38.1844 27.9404Z" fill="#FEF4A1"/>
<path d="M41.7234 20.5361C41.7234 20.5361 47.5834 22.051 50.0254 19.5404C52.4673 17.0297 50.4895 14.4056 49.3614 13.9914C46.9814 13.112 40.6685 14.2297 40.6685 14.2297C41.8979 16.0567 41.7234 20.5361 41.7234 20.5361Z" fill="#FEF4A1"/>
<path d="M39.7851 12.9191C39.7851 12.9191 44.396 10.1957 45.375 6.7943C46.3372 3.44962 42.4352 2.57869 41.3099 2.99572C38.9299 3.88082 35.402 8.95316 35.402 8.95316C36.1476 9.24536 39.7851 12.9191 39.7851 12.9191Z" fill="#FEF4A1"/>
</g>
<defs>
<clipPath id="clip0_277_178">
<rect width="87" height="60" fill="white"/>
</clipPath>
</defs>
</svg>
