<svg width="310" height="212" viewBox="0 0 310 212" fill="none" xmlns="http://www.w3.org/2000/svg">
<g clip-path="url(#clip0_416_1202)">
<path d="M61.9999 105C61.9999 105 35.4999 132.62 15.6999 111.1C15.6999 111.1 2.11995 94.19 33.0299 79.87C32.9999 79.9 -4.00005 82.8 0.369946 56.3C0.369946 56.3 8.05995 35.74 36.0799 42.97C36.0799 42.97 5.15995 18.68 28.6199 4.21002C52.0799 -10.26 71.2799 26.73 71.9999 29.48C71.9999 29.48 16.0999 54.77 61.9999 105Z" fill="#6B1211"/>
<path d="M65.76 30.34C65.76 30.34 55.24 12.41 43.84 10.89C32.44 9.37001 29.9 19.22 30.75 23.64C31.6 28.06 49.55 46.45 49.55 46.45C55.25 36.89 65.76 30.34 65.76 30.34Z" fill="#EE7381"/>
<path d="M45.8299 54.17C45.8299 54.17 26.9299 45.5 16.7199 50.79C6.50986 56.08 10.0699 65.61 13.2999 68.79C16.5299 71.97 41.5599 74.21 41.5599 74.21C41.8683 67.3402 43.3111 60.5688 45.8299 54.17Z" fill="#EE7381"/>
<path d="M42.9998 83.2C42.9998 83.2 24.8798 88.32 21.6798 97.71C18.4798 107.1 26.3798 110.91 30.2698 110.93C34.1598 110.95 52.8798 98 52.8798 98C48.3592 94.0066 44.9545 88.9064 42.9998 83.2Z" fill="#EE7381"/>
<path d="M64.9999 106.75C68.6199 108.86 74.7099 110.86 80.9999 111.75C80.9999 111.75 78.9999 127.66 84.5399 139.62C84.5399 139.62 85.6799 166.62 96.6499 167.87C107.62 169.12 111.04 159.19 118.43 140.76C118.43 140.76 119.18 140.5 119.43 140.87C119.68 141.24 123.6 162.49 131.52 163.25C139.44 164.01 139.28 151.63 139.59 140.76C139.59 140.76 165.02 140.66 170.4 138.93C170.4 138.93 168.54 158.93 180.61 160.93C192.68 162.93 191.8 137.59 191.8 137.59C191.8 137.59 197.46 137.59 199.09 137.34C199.09 137.34 198.81 161.66 213.89 161.43C228.97 161.2 234.67 138.05 234.52 101.8C234.52 101.8 276.2 125.11 220.76 179.32C220.76 179.32 205.13 200.95 252.44 210.9C252.44 210.9 286.08 218.9 302.91 180.09C318.42 144.31 300.75 116.28 300.75 116.28C300.75 116.28 291.56 95 276.35 87.49C269.65 84.2 269.47 83.49 235.03 84.89C235.03 84.89 208.6 71.26 189.72 71.62C189.72 71.62 165.72 68.22 149.41 69.28C149.41 69.28 151.74 44.15 121.33 29C121.33 29 100.69 16.09 73.6899 26.44C66.0068 29.414 59.1925 34.268 53.871 40.5573C48.5495 46.8467 44.8908 54.3705 43.2299 62.44C41.2499 71.68 36.0499 89.88 64.9999 106.75Z" fill="#F7BDC4"/>
<path d="M249.58 96.06C249.58 96.06 287.02 137.86 236.13 178.8C236.13 178.8 227.83 190.75 242.5 199.38C257.17 208.01 289.11 187.62 295.78 150.38C302.45 113.14 265.47 95.94 265.47 95.94C265.47 95.94 251.62 90.86 249.58 96.06Z" fill="#EE7381"/>
<path d="M81.0001 111.7C81.0001 111.7 80.1501 120.9 80.8601 124.25C81.5001 127.25 130.61 133.25 147.16 112.55C147.16 112.55 130.76 106.31 132.39 103.47C132.4 103.47 94.7401 116.24 81.0001 111.7Z" fill="#EE7381"/>
<g clip-path="url(#clip1_416_1202)">
<path d="M182.999 70.7002C183.101 68.9292 171.791 69.6882 149.355 69C149.298 68.9998 149.242 69.0134 149.191 69.0396C149.14 69.0659 149.097 69.104 149.064 69.1507C149.031 69.1974 149.01 69.2513 149.003 69.3079C148.995 69.3645 149.002 69.422 149.021 69.4757C150.953 74.7585 165.985 122.284 80.4279 119.379C80.3814 119.378 80.3351 119.386 80.2916 119.403C80.2481 119.419 80.2083 119.444 80.1745 119.476C80.1407 119.508 80.1135 119.546 80.0945 119.589C80.0755 119.631 80.065 119.677 80.0637 119.724C80.0637 121.798 80.1143 132.536 83.8166 139.428C83.821 139.462 83.821 139.496 83.8166 139.529C84.2313 141.958 83.9987 142.059 84.3831 144.67C84.3933 144.733 84.4191 144.791 84.458 144.841C84.4969 144.89 84.5477 144.929 84.6056 144.954C86.5377 145.632 102.712 151.026 116.449 145.531C117.208 145.227 117.653 141.614 118.381 141.017C118.516 140.948 118.669 140.919 118.82 140.935C118.971 140.952 119.114 141.012 119.231 141.108C119.231 141.108 119.929 145.075 120.243 145.227C121.254 145.773 137.014 145.025 139.321 144.559C139.397 144.547 139.467 144.507 139.517 144.448C139.568 144.389 139.595 144.313 139.594 144.235C139.594 143.385 139.745 142.211 139.755 141.442C139.752 141.397 139.759 141.353 139.775 141.311C139.791 141.269 139.815 141.231 139.847 141.199C139.878 141.168 139.916 141.143 139.958 141.127C140 141.112 140.045 141.105 140.089 141.108C148.964 141.227 157.839 140.852 166.673 139.985C176.003 117.983 181.524 94.5543 182.999 70.7002Z" fill="#1D1D1B"/>
<path d="M80.4278 111.648C80.4278 111.648 79.568 120.958 80.2862 124.359C80.9336 127.395 130.611 133.467 147.352 112.508C147.352 112.508 130.763 106.203 132.412 103.329C132.412 103.329 94.3165 116.252 80.4278 111.648Z" fill="#1D1D1B"/>
</g>
<path d="M130.7 104.17C130.7 104.17 157.2 131.78 177 110.26C177 110.26 190.58 93.35 159.66 79.04C159.66 79.04 196.74 81.93 192.33 55.43C192.33 55.43 184.64 34.87 156.61 42.1C156.61 42.1 187.53 17.81 164.08 3.33998C140.63 -11.13 121.31 25.89 120.56 28.64C120.56 28.64 176.59 53.91 130.7 104.17Z" fill="#6B1211"/>
<path d="M135.73 98.49C135.73 98.49 147.73 112.3 159.24 111.49C170.75 110.68 171.24 100.49 169.5 96.36C167.76 92.23 147.08 77.69 147.08 77.69C143.55 86.67 135.73 98.49 135.73 98.49Z" fill="#EE7381"/>
<path d="M148.31 72.39C148.31 72.39 169.14 77.73 177.82 68.88C186.5 60.03 179.47 50.78 175.46 49.32C167 46.22 144.56 50.16 144.56 50.16C148.93 56.6 148.31 72.39 148.31 72.39Z" fill="#EE7381"/>
<path d="M141.42 45.54C141.42 45.54 157.81 35.94 161.29 23.95C164.71 12.16 150.84 9.08996 146.84 10.56C138.38 13.68 125.84 31.56 125.84 31.56C128.49 32.59 141.42 45.54 141.42 45.54Z" fill="#EE7381"/>
<g clip-path="url(#clip2_416_1202)">
<path d="M119.34 90.58C123.963 90.58 127.71 88.8204 127.71 86.65C127.71 84.4795 123.963 82.72 119.34 82.72C114.717 82.72 110.97 84.4795 110.97 86.65C110.97 88.8204 114.717 90.58 119.34 90.58Z" fill="#EF7D7C"/>
<path d="M67.4401 90.58C72.0627 90.58 75.8101 88.8204 75.8101 86.65C75.8101 84.4795 72.0627 82.72 67.4401 82.72C62.8174 82.72 59.0701 84.4795 59.0701 86.65C59.0701 88.8204 62.8174 90.58 67.4401 90.58Z" fill="#EF7D7C"/>
<path d="M68.88 79.76C74.8889 79.76 79.76 74.8889 79.76 68.88C79.76 62.8711 74.8889 58 68.88 58C62.8711 58 58 62.8711 58 68.88C58 74.8889 62.8711 79.76 68.88 79.76Z" fill="#1D1D1B"/>
<path d="M115.09 80.38C121.099 80.38 125.97 75.5089 125.97 69.5C125.97 63.4911 121.099 58.62 115.09 58.62C109.081 58.62 104.21 63.4911 104.21 69.5C104.21 75.5089 109.081 80.38 115.09 80.38Z" fill="#1D1D1B"/>
<path d="M64.3299 69.5C66.5004 69.5 68.2599 67.7405 68.2599 65.57C68.2599 63.3995 66.5004 61.64 64.3299 61.64C62.1594 61.64 60.3999 63.3995 60.3999 65.57C60.3999 67.7405 62.1594 69.5 64.3299 69.5Z" fill="white"/>
<path d="M70.0301 73.03C71.2451 73.03 72.2301 72.045 72.2301 70.83C72.2301 69.615 71.2451 68.63 70.0301 68.63C68.8151 68.63 67.8301 69.615 67.8301 70.83C67.8301 72.045 68.8151 73.03 70.0301 73.03Z" fill="white"/>
<path d="M111.16 70.12C113.33 70.12 115.09 68.3605 115.09 66.19C115.09 64.0195 113.33 62.26 111.16 62.26C108.99 62.26 107.23 64.0195 107.23 66.19C107.23 68.3605 108.99 70.12 111.16 70.12Z" fill="white"/>
<path d="M116.85 73.64C118.065 73.64 119.05 72.655 119.05 71.44C119.05 70.225 118.065 69.24 116.85 69.24C115.635 69.24 114.65 70.225 114.65 71.44C114.65 72.655 115.635 73.64 116.85 73.64Z" fill="white"/>
<path d="M101.1 91.24C101.1 93.68 99.1001 96.62 96.4401 96.62C94.6201 96.62 92.6701 94.23 92.2201 93.24C92.1101 93.02 92.1101 93.02 92.0301 93.24C91.643 94.2227 90.9723 95.0679 90.1032 95.6681C89.2342 96.2682 88.2061 96.5961 87.1501 96.61C84.5201 96.61 82.8201 93.8 82.8201 91.36" stroke="#1D1D1B" stroke-width="1.6" stroke-miterlimit="10" stroke-linecap="round"/>
</g>
</g>
<defs>
<clipPath id="clip0_416_1202">
<rect width="309.25" height="211.5" fill="white"/>
</clipPath>
<clipPath id="clip1_416_1202">
<rect width="105" height="79" fill="white" transform="translate(77 69)"/>
</clipPath>
<clipPath id="clip2_416_1202">
<rect width="69.71" height="39.42" fill="white" transform="translate(58 58)"/>
</clipPath>
</defs>
</svg>
