<svg width="88" height="60" viewBox="0 0 88 60" fill="none" xmlns="http://www.w3.org/2000/svg">
<g clip-path="url(#clip0_277_234)">
<path d="M17.6427 29.7872C17.6427 29.7872 10.1019 37.6227 4.46758 31.5177C4.46758 31.5177 0.603259 26.7206 9.39899 22.6581C9.39045 22.6667 -1.13824 23.4894 0.10528 15.9716C0.10528 15.9716 2.29354 10.139 10.2669 12.1901C10.2669 12.1901 1.46832 5.29928 8.14408 1.19431C14.8198 -2.91065 20.2834 7.58297 20.4883 8.36311C20.4883 8.36311 4.5814 15.5376 17.6427 29.7872Z" fill="#D57DB2"/>
<path d="M18.4964 30.2837C19.5265 30.8823 21.2594 31.4496 23.0493 31.7021C23.0493 31.7021 22.4802 36.2156 24.0566 39.6085C24.0566 39.6085 24.381 47.2681 27.5027 47.6227C30.6243 47.9773 31.5975 45.1603 33.7004 39.9319C33.7004 39.9319 33.9138 39.8581 33.9849 39.9631C34.0561 40.0681 35.1715 46.0964 37.4252 46.312C39.679 46.5276 39.6334 43.0156 39.7216 39.9319C39.7216 39.9319 46.958 39.9035 48.4889 39.4128C48.4889 39.4128 47.9596 45.0865 51.3943 45.6539C54.8289 46.2213 54.5785 39.0326 54.5785 39.0326C54.5785 39.0326 56.1891 39.0326 56.6529 38.9617C56.6529 38.9617 56.5732 45.861 60.8644 45.7957C65.1556 45.7305 66.7775 39.1631 66.7349 28.8794C66.7349 28.8794 78.5953 35.4922 62.8193 50.8709C62.8193 50.8709 58.3717 57.0071 71.8342 59.8298C71.8342 59.8298 81.4067 62.0993 86.1959 51.0893C90.6094 40.939 85.5812 32.9872 85.5812 32.9872C85.5812 32.9872 82.9661 26.9503 78.638 24.8198C76.7314 23.8865 76.6802 23.6851 66.88 24.0823C66.88 24.0823 59.3591 20.2156 53.9866 20.3177C53.9866 20.3177 47.1572 19.3532 42.516 19.6539C42.516 19.6539 43.179 12.5248 34.5256 8.22693C34.5256 8.22693 28.6523 4.56452 20.9692 7.50069C18.7829 8.34439 16.8438 9.72139 15.3295 11.5056C13.8153 13.2898 12.7741 15.4243 12.3015 17.7135C11.7381 20.3347 10.2584 25.4979 18.4964 30.2837Z" fill="#F8C9E0"/>
<path d="M23.0493 31.6879C23.0493 31.6879 22.8074 34.2979 23.0095 35.2482C23.1916 36.0993 37.1663 37.8014 41.8758 31.9291C41.8758 31.9291 37.209 30.1589 37.6728 29.3532C37.6757 29.3532 26.9592 32.9759 23.0493 31.6879Z" fill="#F3B5D3"/>
<path d="M37.1919 29.5517C37.1919 29.5517 44.7327 37.3844 50.367 31.2794C50.367 31.2794 54.2313 26.4822 45.4328 22.4227C45.4328 22.4227 55.9842 23.2425 54.7293 15.7248C54.7293 15.7248 52.541 9.89218 44.5648 11.9432C44.5648 11.9432 53.3634 5.05246 46.6905 0.947496C40.0176 -3.15747 34.5199 7.34466 34.3065 8.1248C34.3065 8.1248 50.2503 15.2936 37.1919 29.5517Z" fill="#D57DB2"/>
<path d="M38.6232 27.9404C38.6232 27.9404 42.0379 31.8581 45.3132 31.6284C48.5885 31.3986 48.7279 28.5078 48.2328 27.3362C47.7377 26.1645 41.853 22.0397 41.853 22.0397C40.8485 24.5872 38.6232 27.9404 38.6232 27.9404Z" fill="#F3B5D3"/>
<path d="M18.7126 8.60709C18.7126 8.60709 15.7191 3.52057 12.4751 3.08936C9.23111 2.65816 8.50833 5.45248 8.7502 6.70638C8.99208 7.96028 14.0999 13.1773 14.0999 13.1773C15.7219 10.4652 18.7126 8.60709 18.7126 8.60709Z" fill="#F3B5D3"/>
<path d="M13.0414 15.3674C13.0414 15.3674 7.66319 12.9078 4.75784 14.4085C1.85248 15.9092 2.86552 18.6127 3.78464 19.5149C4.70377 20.417 11.8263 21.0525 11.8263 21.0525C11.9141 19.1036 12.3246 17.1826 13.0414 15.3674Z" fill="#F3B5D3"/>
<path d="M12.2361 23.6028C12.2361 23.6028 7.07984 25.0553 6.16925 27.7191C5.25866 30.383 7.50668 31.4638 8.61362 31.4695C9.72055 31.4752 15.0475 27.8014 15.0475 27.8014C13.7611 26.6685 12.7923 25.2217 12.2361 23.6028Z" fill="#F3B5D3"/>
<path d="M42.203 20.5362C42.203 20.5362 48.1304 22.051 50.6004 19.5404C53.0703 17.0298 51.0699 14.4057 49.9288 13.9915C47.5214 13.112 41.1359 14.2298 41.1359 14.2298C42.3794 16.0567 42.203 20.5362 42.203 20.5362Z" fill="#F3B5D3"/>
<path d="M40.2424 12.9192C40.2424 12.9192 44.9063 10.1957 45.8966 6.79433C46.8698 3.44965 42.9229 2.57873 41.7847 2.99575C39.3773 3.88085 35.8089 8.95319 35.8089 8.95319C36.563 9.24539 40.2424 12.9192 40.2424 12.9192Z" fill="#F3B5D3"/>
<path d="M71.0203 27.2511C71.0203 27.2511 81.6742 39.1092 67.193 50.7234C67.193 50.7234 64.8312 54.1135 69.0056 56.5617C73.1801 59.0099 82.269 53.2255 84.167 42.661C86.065 32.0965 75.542 27.217 75.542 27.217C75.542 27.217 71.6008 25.7759 71.0203 27.2511Z" fill="#F3B5D3"/>
</g>
<defs>
<clipPath id="clip0_277_234">
<rect width="88" height="60" fill="white"/>
</clipPath>
</defs>
</svg>
